STARTFONT 2.1
COMMENT
COMMENT Converted from OpenType font "UbuntuMono-Regular.ttf" by "otf2bdf 3.0".
COMMENT
FONT -FreeType-ubuntu mono cp1252-Medium-R-Normal--48-350-100-100-P-181-ISO10646-1
SIZE 35 100 100
FONTBOUNDINGBOX 25 49 0 -8
STARTPROPERTIES 19
FOUNDRY "FreeType"
FAMILY_NAME "ubuntu mono cp1252"
WEIGHT_NAME "Medium"
SLANT "R"
SETWIDTH_NAME "Normal"
ADD_STYLE_NAME ""
PIXEL_SIZE 48
POINT_SIZE 350
RESOLUTION_X 100
RESOLUTION_Y 100
SPACING "P"
AVERAGE_WIDTH 181
CHARSET_REGISTRY "ISO10646"
CHARSET_ENCODING "1"
FONT_ASCENT 40
FONT_DESCENT 8
COPYRIGHT "Copyright 2011 Canonical Ltd.  Licensed under the Ubuntu Font Licence 1.0"
_OTF_FONTFILE "UbuntuMono-Regular.ttf"
_OTF_PSNAME "UbuntuMono-Regular"
ENDPROPERTIES
CHARS 223
STARTCHAR 0000
ENCODING 157
SWIDTH 514 0
DWIDTH 25 0
BBX 0 0 0 0
BITMAP
ENDCHAR
STARTCHAR 0008
ENCODING 8
SWIDTH 514 0
DWIDTH 25 0
BBX 0 0 0 0
BITMAP
ENDCHAR
STARTCHAR 0009
ENCODING 9
SWIDTH 514 0
DWIDTH 25 0
BBX 0 0 0 0
BITMAP
ENDCHAR
STARTCHAR 000D
ENCODING 13
SWIDTH 514 0
DWIDTH 25 0
BBX 0 0 0 0
BITMAP
ENDCHAR
STARTCHAR 001D
ENCODING 29
SWIDTH 514 0
DWIDTH 25 0
BBX 0 0 0 0
BITMAP
ENDCHAR
STARTCHAR 0020
ENCODING 32
SWIDTH 514 0
DWIDTH 25 0
BBX 0 0 0 0
BITMAP
ENDCHAR
STARTCHAR 0021
ENCODING 33
SWIDTH 514 0
DWIDTH 25 0
BBX 6 30 9 0
BITMAP
78
78
78
78
78
78
78
78
78
78
78
78
78
78
78
78
38
38
38
00
00
00
00
78
FC
FC
FC
FC
FC
78
ENDCHAR
STARTCHAR 0022
ENCODING 34
SWIDTH 514 0
DWIDTH 25 0
BBX 12 12 6 21
BITMAP
F0F0
F0F0
F0F0
F0F0
F0F0
F070
7070
7070
7070
7070
6070
6060
ENDCHAR
STARTCHAR 0023
ENCODING 35
SWIDTH 514 0
DWIDTH 25 0
BBX 22 30 1 0
BITMAP
00E070
01E070
01E0F0
01E0F0
01E0F0
01C0F0
01C0E0
03C1E0
FFFFFC
FFFFFC
FFFFFC
0781C0
0783C0
0783C0
0783C0
0703C0
070380
0F0780
0F0780
FFFFFC
FFFFFC
FFFFFC
1E0F00
1E0F00
1E0F00
1C0F00
1C0E00
3C0E00
3C1E00
3C1E00
ENDCHAR
STARTCHAR 0024
ENCODING 36
SWIDTH 514 0
DWIDTH 25 0
BBX 19 39 3 -5
BITMAP
01E000
01E000
01E000
01E000
01E000
03FE00
0FFF80
3FFF80
7FFF80
7E0180
780000
F80000
F80000
F80000
F80000
7C0000
7F8000
3FE000
1FF800
0FFE00
03FF80
007F80
001FC0
0007E0
0003E0
0003E0
0001E0
0003E0
4003E0
F00FC0
FFFFC0
FFFF80
7FFE00
1FF800
01E000
01E000
01E000
01E000
01E000
ENDCHAR
STARTCHAR 0025
ENCODING 37
SWIDTH 514 0
DWIDTH 25 0
BBX 23 30 1 0
BITMAP
1E003C
3F8038
7FC078
F3C070
E1C0E0
E1C1E0
E1E1C0
E0E3C0
E1E380
E1C700
E1CF00
F3CE00
7F9C00
3FBC00
1F3800
0079F0
0073F8
00E7FC
01E73C
01CE1C
03CE1C
078E0E
070E0E
0F0E0E
0E0E1E
1C0E1C
3C073C
3807FC
7803F8
7001F0
ENDCHAR
STARTCHAR 0026
ENCODING 38
SWIDTH 514 0
DWIDTH 25 0
BBX 21 30 2 0
BITMAP
03F000
0FFC00
1FFE00
3FFE00
3E1F00
3C0F00
3C0F00
3C0F00
3C0E00
3C1E00
3C3C00
1E7800
0FF000
0FE000
0FC0E0
1FE0E0
3DF0E0
78F9E0
F07DE0
F03FC0
F01FC0
F00FC0
F00780
F007C0
F80FC0
FC3FE0
7FFFF0
7FFCF0
3FF0F8
0FC078
ENDCHAR
STARTCHAR 0027
ENCODING 39
SWIDTH 514 0
DWIDTH 25 0
BBX 4 13 10 20
BITMAP
F0
F0
F0
F0
F0
F0
F0
F0
F0
70
70
70
70
ENDCHAR
STARTCHAR 0028
ENCODING 40
SWIDTH 514 0
DWIDTH 25 0
BBX 13 42 6 -8
BITMAP
0020
0070
00F8
01F0
03E0
07C0
0F80
1F00
1E00
3E00
3C00
7C00
7800
7800
F000
F000
F000
F000
F000
F000
E000
E000
F000
F000
F000
F000
F000
F000
7800
7800
7C00
3C00
3E00
1F00
1F00
0F80
07C0
03E0
01F0
00F8
0070
0020
ENDCHAR
STARTCHAR 0029
ENCODING 41
SWIDTH 514 0
DWIDTH 25 0
BBX 13 42 6 -8
BITMAP
4000
7000
F800
FC00
7E00
3F00
1F00
0F80
07C0
03C0
03E0
01E0
01E0
00F0
00F0
00F0
0070
0078
0078
0078
0078
0078
0078
0078
0078
0078
00F0
00F0
00F0
01E0
01E0
03E0
03C0
07C0
0F80
1F00
1F00
3E00
FC00
F800
7000
4000
ENDCHAR
STARTCHAR 002A
ENCODING 42
SWIDTH 514 0
DWIDTH 25 0
BBX 19 18 3 12
BITMAP
01E000
01E000
01E000
01E000
40E0C0
78E3C0
FEEFC0
FFFFE0
7FFF80
01E000
03F000
07B800
0FBC00
0F3E00
1F1F00
3E1F00
1E0E00
040400
ENDCHAR
STARTCHAR 002B
ENCODING 43
SWIDTH 514 0
DWIDTH 25 0
BBX 20 21 2 2
BITMAP
00F000
00F000
00F000
00F000
00F000
00F000
00F000
00F000
00F000
FFFFF0
FFFFF0
FFFFF0
00F000
00F000
00F000
00F000
00F000
00F000
00F000
00F000
00F000
ENDCHAR
STARTCHAR 002C
ENCODING 44
SWIDTH 514 0
DWIDTH 25 0
BBX 10 14 7 -7
BITMAP
0700
1F80
1FC0
1FC0
1FC0
1FC0
0FC0
03C0
0780
0F80
3F00
FE00
7C00
6000
ENDCHAR
STARTCHAR 002D
ENCODING 45
SWIDTH 514 0
DWIDTH 25 0
BBX 11 4 7 11
BITMAP
FFE0
FFE0
FFE0
FFE0
ENDCHAR
STARTCHAR 002E
ENCODING 46
SWIDTH 514 0
DWIDTH 25 0
BBX 7 7 9 0
BITMAP
78
FC
FE
FE
FE
FC
78
ENDCHAR
STARTCHAR 002F
ENCODING 47
SWIDTH 514 0
DWIDTH 25 0
BBX 17 42 4 -8
BITMAP
000780
000780
000F00
000F00
000F00
001E00
001E00
001E00
003C00
003C00
003C00
007800
007800
007800
00F000
00F000
00F000
01E000
01E000
01E000
03E000
03C000
03C000
07C000
078000
078000
0F8000
0F0000
0F0000
1F0000
1E0000
1E0000
3E0000
3C0000
3C0000
7C0000
780000
780000
F80000
F00000
F00000
F00000
ENDCHAR
STARTCHAR 0030
ENCODING 48
SWIDTH 514 0
DWIDTH 25 0
BBX 20 30 2 0
BITMAP
01F800
07FE00
0FFF80
1FFF80
3F0FC0
3E03E0
3C03E0
7C01E0
7801F0
7800F0
7800F0
F870F0
F0F8F0
F0F8F0
F0F8F0
F0F8F0
F070F0
F000F0
F800F0
7800F0
7800F0
7801F0
7C01E0
3C03E0
3E03E0
3F0FC0
1FFF80
0FFF80
07FE00
01F800
ENDCHAR
STARTCHAR 0031
ENCODING 49
SWIDTH 514 0
DWIDTH 25 0
BBX 17 30 4 0
BITMAP
00F000
01F000
03F000
07F000
1FF000
7FF000
FCF000
F8F000
40F000
00F000
00F000
00F000
00F000
00F000
00F000
00F000
00F000
00F000
00F000
00F000
00F000
00F000
00F000
00F000
00F000
00F000
00F000
7FFF80
7FFF80
7FFF80
ENDCHAR
STARTCHAR 0032
ENCODING 50
SWIDTH 514 0
DWIDTH 25 0
BBX 19 30 3 0
BITMAP
07F000
1FFC00
7FFF00
FFFF00
FC1F80
700F80
400780
0007C0
0007C0
000780
000780
000780
000F00
001F00
003E00
007C00
00F800
01F000
03E000
07C000
0F8000
1F0000
1F0000
3E0000
7C0000
780000
780000
FFFFE0
FFFFE0
FFFFE0
ENDCHAR
STARTCHAR 0033
ENCODING 51
SWIDTH 514 0
DWIDTH 25 0
BBX 19 30 3 0
BITMAP
07F000
3FFC00
7FFF00
7FFF00
781F80
200F80
000780
000780
000780
000780
000F00
003F00
07FC00
07FC00
07FF00
003F80
000F80
0003C0
0003C0
0003E0
0001E0
0003E0
0003E0
0003C0
0007C0
601FC0
FFFF80
FFFF00
FFFE00
1FF000
ENDCHAR
STARTCHAR 0034
ENCODING 52
SWIDTH 514 0
DWIDTH 25 0
BBX 21 30 2 0
BITMAP
000780
000F80
001F80
003F80
007F80
007F80
00F780
01E780
03C780
038780
078780
0F0780
0E0780
1E0780
3C0780
3C0780
780780
700780
F00780
FFFFF8
FFFFF8
FFFFF8
000780
000780
000780
000780
000780
000780
000780
000780
ENDCHAR
STARTCHAR 0035
ENCODING 53
SWIDTH 514 0
DWIDTH 25 0
BBX 19 30 3 0
BITMAP
1FFFC0
1FFFC0
1FFFC0
1E0000
1E0000
1E0000
1C0000
1C0000
1C0000
1C0000
1C0000
3FE000
3FFC00
3FFE00
3FFF00
007F80
000FC0
0007C0
0003C0
0003E0
0001E0
0001E0
0003E0
0003C0
0007C0
601FC0
7FFF80
FFFF00
FFFE00
1FF000
ENDCHAR
STARTCHAR 0036
ENCODING 54
SWIDTH 514 0
DWIDTH 25 0
BBX 19 30 3 0
BITMAP
000F80
007F80
01FF80
03FF80
0FF000
1F8000
1F0000
3E0000
3C0000
780000
780000
F3F800
FFFE00
FFFF80
FFFF80
FC0FC0
F003C0
F003E0
F001E0
F001E0
F001E0
F001E0
F001E0
F803E0
7C07C0
7E0FC0
3FFF80
1FFF00
0FFE00
03F800
ENDCHAR
STARTCHAR 0037
ENCODING 55
SWIDTH 514 0
DWIDTH 25 0
BBX 19 30 3 0
BITMAP
FFFFE0
FFFFE0
FFFFE0
0003E0
0003C0
000780
000F80
000F00
001F00
001E00
003C00
003C00
007C00
007800
00F800
00F000
00F000
01F000
01E000
01E000
03E000
03C000
03C000
03C000
07C000
078000
078000
078000
078000
078000
ENDCHAR
STARTCHAR 0038
ENCODING 56
SWIDTH 514 0
DWIDTH 25 0
BBX 20 30 2 0
BITMAP
01FC00
07FF00
0FFF80
1FFFC0
3F07E0
3C03E0
7801E0
7801E0
7801E0
7801E0
7C01E0
3E03C0
3F8F80
1FFF00
0FFF00
07FF80
1F7FC0
3E0FE0
3C03E0
7801F0
7800F0
7000F0
F000F0
7800F0
7C01F0
7E07E0
3FFFE0
1FFFC0
0FFF80
03FC00
ENDCHAR
STARTCHAR 0039
ENCODING 57
SWIDTH 514 0
DWIDTH 25 0
BBX 20 30 2 0
BITMAP
01F800
07FE00
1FFF80
1FFF80
3F0FC0
7C03E0
7801E0
7801E0
7801F0
F800F0
7800F0
7800F0
7800F0
7C00F0
7E03F0
3FFFF0
1FFFF0
0FFFE0
03FDE0
0001E0
0003E0
0003C0
0007C0
000F80
003F00
01FF00
3FFC00
3FF800
3FE000
3E0000
ENDCHAR
STARTCHAR 003A
ENCODING 58
SWIDTH 514 0
DWIDTH 25 0
BBX 7 23 9 0
BITMAP
78
FC
FE
FE
FE
FC
78
00
00
00
00
00
00
00
00
00
78
FC
FE
FE
FE
FC
78
ENDCHAR
STARTCHAR 003B
ENCODING 59
SWIDTH 514 0
DWIDTH 25 0
BBX 10 30 6 -7
BITMAP
0F00
1F80
1FC0
1FC0
1FC0
1F80
0F00
0000
0000
0000
0000
0000
0000
0000
0000
0000
0F00
1F80
1FC0
1FC0
1FC0
1FC0
0FC0
0380
0780
0F00
3F00
FE00
F800
6000
ENDCHAR
STARTCHAR 003C
ENCODING 60
SWIDTH 514 0
DWIDTH 25 0
BBX 20 19 2 3
BITMAP
000030
0000F0
0007F0
001FE0
00FF80
03FC00
0FF000
7FC000
FE0000
F80000
FE0000
7FC000
1FF000
03FC00
00FF80
001FE0
0007F0
0000F0
000030
ENDCHAR
STARTCHAR 003D
ENCODING 61
SWIDTH 514 0
DWIDTH 25 0
BBX 20 12 2 7
BITMAP
FFFFF0
FFFFF0
FFFFF0
000000
000000
000000
000000
000000
000000
FFFFF0
FFFFF0
FFFFF0
ENDCHAR
STARTCHAR 003E
ENCODING 62
SWIDTH 514 0
DWIDTH 25 0
BBX 19 19 3 3
BITMAP
C00000
F00000
FE0000
7F8000
1FE000
07FC00
00FF00
003FE0
0007E0
0001E0
0007E0
003FE0
00FF00
07FC00
1FF000
7F8000
FE0000
F00000
C00000
ENDCHAR
STARTCHAR 003F
ENCODING 63
SWIDTH 514 0
DWIDTH 25 0
BBX 15 30 5 0
BITMAP
1FE0
FFF8
FFFC
FFFC
C07E
003E
001E
001E
001E
003C
003C
0078
01F0
03E0
03C0
0780
0F00
0F00
0F00
0000
0000
0000
0000
0F00
1F80
1F80
1F80
1F80
1F80
0F00
ENDCHAR
STARTCHAR 0040
ENCODING 64
SWIDTH 514 0
DWIDTH 25 0
BBX 21 37 2 -7
BITMAP
00FE00
03FF80
07FFC0
0FFFE0
1F83F0
1F01F0
3E00F0
3C0078
7C0078
780078
780078
780FF8
F03FF8
F07FF8
F0FFF8
F0F878
F1F078
F1E078
F1E078
F1E078
F1E078
F1E078
F1F078
F0F878
78FFF8
787FF8
783FF8
7C0FE0
3C0000
3E0000
1F0000
1F8000
0FE000
07FFC0
03FFC0
00FFE0
003FC0
ENDCHAR
STARTCHAR 0041
ENCODING 65
SWIDTH 514 0
DWIDTH 25 0
BBX 23 30 1 0
BITMAP
007C00
00FC00
00FE00
01FE00
01EF00
01CF00
03CF00
03C780
038780
078780
0783C0
0703C0
0F03C0
0F01C0
0F01E0
1E01E0
1E01E0
1E00F0
1C00F0
3FFFF0
3FFFF0
3FFFF8
780078
780078
78003C
78003C
F0003C
F0003C
F0003E
F0001E
ENDCHAR
STARTCHAR 0042
ENCODING 66
SWIDTH 514 0
DWIDTH 25 0
BBX 19 30 3 0
BITMAP
7FF000
FFFE00
FFFF00
FFFF80
F01F80
F00780
F007C0
F003C0
F003C0
F00780
F00780
F01F00
FFFE00
FFFC00
FFFF00
F01F80
F007C0
F003C0
F001E0
F001E0
F001E0
F001E0
F001E0
F003E0
F007C0
F01FC0
FFFF80
FFFF00
FFFE00
7FF000
ENDCHAR
STARTCHAR 0043
ENCODING 67
SWIDTH 514 0
DWIDTH 25 0
BBX 20 30 2 0
BITMAP
007F00
01FFE0
07FFF0
0FFFF0
1FC0F0
1F0020
3E0000
3C0000
7C0000
780000
780000
F80000
F80000
F00000
F00000
F00000
F00000
F80000
F80000
780000
780000
7C0000
7C0000
3E0000
3F0010
1FC0F0
0FFFF0
07FFF0
03FFE0
007F80
ENDCHAR
STARTCHAR 0044
ENCODING 68
SWIDTH 514 0
DWIDTH 25 0
BBX 20 30 3 0
BITMAP
7FC000
FFF800
FFFE00
FFFF00
F03F80
F00F80
F007C0
F003C0
F003E0
F001E0
F001E0
F001E0
F001E0
F001E0
F001F0
F001F0
F001E0
F001E0
F001E0
F001E0
F001E0
F003E0
F003C0
F007C0
F00F80
F03F80
FFFF00
FFFE00
FFF800
7FC000
ENDCHAR
STARTCHAR 0045
ENCODING 69
SWIDTH 514 0
DWIDTH 25 0
BBX 19 30 4 0
BITMAP
FFFF80
FFFF80
FFFF80
F00000
F00000
F00000
F00000
F00000
F00000
F00000
F00000
F00000
F00000
FFFF00
FFFF00
FFFF00
F00000
F00000
F00000
F00000
F00000
F00000
F00000
F00000
F00000
F00000
F00000
FFFFE0
FFFFE0
FFFFE0
ENDCHAR
STARTCHAR 0046
ENCODING 70
SWIDTH 514 0
DWIDTH 25 0
BBX 18 30 4 0
BITMAP
FFFFC0
FFFFC0
FFFFC0
F00000
F00000
F00000
F00000
F00000
F00000
F00000
F00000
F00000
F00000
FFFF00
FFFF00
FFFF00
F00000
F00000
F00000
F00000
F00000
F00000
F00000
F00000
F00000
F00000
F00000
F00000
F00000
F00000
ENDCHAR
STARTCHAR 0047
ENCODING 71
SWIDTH 514 0
DWIDTH 25 0
BBX 20 30 2 0
BITMAP
007F80
01FFE0
07FFF0
0FFFF0
1FC0E0
1F0020
3E0000
3C0000
7C0000
780000
780000
F80000
F80000
F00000
F00000
F000F0
F000F0
F800F0
F800F0
7800F0
7800F0
7C00F0
3C00F0
3E00F0
3F00F0
1FC0F0
0FFFF0
07FFF0
03FFF0
007F80
ENDCHAR
STARTCHAR 0048
ENCODING 72
SWIDTH 514 0
DWIDTH 25 0
BBX 20 30 2 0
BITMAP
F000F0
F000F0
F000F0
F000F0
F000F0
F000F0
F000F0
F000F0
F000F0
F000F0
F000F0
F000F0
F000F0
FFFFF0
FFFFF0
FFFFF0
F000F0
F000F0
F000F0
F000F0
F000F0
F000F0
F000F0
F000F0
F000F0
F000F0
F000F0
F000F0
F000F0
F000F0
ENDCHAR
STARTCHAR 0049
ENCODING 73
SWIDTH 514 0
DWIDTH 25 0
BBX 16 30 4 0
BITMAP
FFFF
FFFF
FFFF
03C0
03C0
03C0
03C0
03C0
03C0
03C0
03C0
03C0
03C0
03C0
03C0
03C0
03C0
03C0
03C0
03C0
03C0
03C0
03C0
03C0
03C0
03C0
03C0
FFFF
FFFF
FFFF
ENDCHAR
STARTCHAR 004A
ENCODING 74
SWIDTH 514 0
DWIDTH 25 0
BBX 18 30 3 0
BITMAP
1FFFC0
1FFFC0
1FFFC0
0003C0
0003C0
0003C0
0003C0
0003C0
0003C0
0003C0
0003C0
0003C0
0003C0
0003C0
0003C0
0003C0
0003C0
0003C0
0003C0
0003C0
0007C0
0007C0
000780
000780
400F80
703F80
FFFF00
FFFE00
7FFC00
0FF000
ENDCHAR
STARTCHAR 004B
ENCODING 75
SWIDTH 514 0
DWIDTH 25 0
BBX 21 30 3 0
BITMAP
F001F0
F003E0
F007C0
F00780
F00F80
F01F00
F03E00
F07C00
F0F800
F1F000
F3E000
F7E000
F7C000
FF8000
FFC000
F7E000
F3F000
F1F800
F0FC00
F07C00
F03E00
F01F00
F00F80
F00F80
F007C0
F003E0
F003E0
F001F0
F000F0
F000F8
ENDCHAR
STARTCHAR 004C
ENCODING 76
SWIDTH 514 0
DWIDTH 25 0
BBX 19 30 4 0
BITMAP
F00000
F00000
F00000
F00000
F00000
F00000
F00000
F00000
F00000
F00000
F00000
F00000
F00000
F00000
F00000
F00000
F00000
F00000
F00000
F00000
F00000
F00000
F00000
F00000
F00000
F00000
F00000
FFFFE0
FFFFE0
FFFFE0
ENDCHAR
STARTCHAR 004D
ENCODING 77
SWIDTH 514 0
DWIDTH 25 0
BBX 21 30 2 0
BITMAP
3C01E0
3C03E0
7C03E0
7E03E0
7E07E0
7E07E0
7707F0
770770
770E70
738E70
738E70
739C70
71DC70
F1DC70
F1F870
F0F870
F0F870
F0F070
F00070
F00070
F00070
F00078
F00078
F00078
F00078
F00078
F00078
F00078
F00078
E00078
ENDCHAR
STARTCHAR 004E
ENCODING 78
SWIDTH 514 0
DWIDTH 25 0
BBX 19 30 3 0
BITMAP
F001E0
F801E0
F801E0
FC01E0
FC01E0
FE01E0
EE01E0
EF01E0
E701E0
E781E0
E3C1E0
E3C1E0
E1E1E0
E1E1E0
E0E1E0
E0F1E0
E071E0
E079E0
E039E0
E03DE0
E01DE0
E01DE0
E01FE0
E00FE0
E00FE0
E007E0
E007E0
E003E0
E003E0
E003E0
ENDCHAR
STARTCHAR 004F
ENCODING 79
SWIDTH 514 0
DWIDTH 25 0
BBX 22 30 1 0
BITMAP
00FE00
03FF80
0FFFC0
0FFFE0
1F83F0
3E01F0
3C00F8
7C0078
780078
78007C
78003C
78003C
F8003C
F8003C
F8003C
F8003C
F8003C
F8003C
78003C
78003C
78007C
780078
7C0078
3C00F8
3E01F0
1F83F0
1FFFE0
0FFFC0
03FF80
00FE00
ENDCHAR
STARTCHAR 0050
ENCODING 80
SWIDTH 514 0
DWIDTH 25 0
BBX 18 30 4 0
BITMAP
7FF000
FFFC00
FFFF00
FFFF00
F01F80
F007C0
F007C0
F003C0
F003C0
F003C0
F003C0
F003C0
F003C0
F007C0
F00F80
F01F00
FFFE00
FFFC00
FFE000
F00000
F00000
F00000
F00000
F00000
F00000
F00000
F00000
F00000
F00000
F00000
ENDCHAR
STARTCHAR 0051
ENCODING 81
SWIDTH 514 0
DWIDTH 25 0
BBX 22 38 1 -8
BITMAP
00FE00
03FF80
0FFFC0
0FFFE0
1F83F0
3E01F0
3C00F8
7C0078
780078
78007C
78003C
78003C
F8003C
F8003C
F8003C
F8003C
F8003C
F8003C
78003C
78003C
78007C
780078
7C0078
3C00F8
3E01F0
1F83F0
1FFFE0
0FFFC0
07FF80
01FE00
007800
007C00
003E00
001FC0
001FF8
0007F8
0001F0
000030
ENDCHAR
STARTCHAR 0052
ENCODING 82
SWIDTH 514 0
DWIDTH 25 0
BBX 19 30 3 0
BITMAP
7FE000
FFFC00
FFFF00
FFFF00
F01F80
F00FC0
F007C0
F003C0
F003C0
F003C0
F003C0
F003C0
F00780
F00F80
F01F00
FFFE00
FFFC00
FFF800
F07C00
F03C00
F01E00
F01E00
F00F00
F00F00
F00780
F00780
F003C0
F003E0
F001E0
F001E0
ENDCHAR
STARTCHAR 0053
ENCODING 83
SWIDTH 514 0
DWIDTH 25 0
BBX 19 30 3 0
BITMAP
03FC00
0FFF80
1FFFC0
3FFF80
7E0780
780080
780000
F00000
F80000
780000
7C0000
7E0000
3FC000
1FF000
0FFC00
03FF00
00FF80
001FC0
0007C0
0003E0
0003E0
0001E0
0001E0
0003E0
4003C0
F00FC0
FFFFC0
FFFF80
7FFE00
0FF800
ENDCHAR
STARTCHAR 0054
ENCODING 84
SWIDTH 514 0
DWIDTH 25 0
BBX 21 30 2 0
BITMAP
FFFFF8
FFFFF8
FFFFF8
00F000
00F000
00F000
00F000
00F000
00F000
00F000
00F000
00F000
00F000
00F000
00F000
00F000
00F000
00F000
00F000
00F000
00F000
00F000
00F000
00F000
00F000
00F000
00F000
00F000
00F000
00F000
ENDCHAR
STARTCHAR 0055
ENCODING 85
SWIDTH 514 0
DWIDTH 25 0
BBX 20 30 2 0
BITMAP
F000F0
F000F0
F000F0
F000F0
F000F0
F000F0
F000F0
F000F0
F000F0
F000F0
F000F0
F000F0
F000F0
F000F0
F000F0
F000F0
F000F0
F000F0
F000F0
F000F0
F000F0
F800F0
7800F0
7801F0
7C03E0
3E07E0
3FFFC0
1FFFC0
0FFF00
03FC00
ENDCHAR
STARTCHAR 0056
ENCODING 86
SWIDTH 514 0
DWIDTH 25 0
BBX 23 30 1 0
BITMAP
F0001E
F0003E
F8003C
F8003C
78003C
78007C
7C0078
3C0078
3C0078
3C00F0
3E00F0
1E00F0
1E01F0
1E01E0
0F01E0
0F01E0
0F03C0
0783C0
0783C0
078780
03C780
03C780
03CF00
03EF00
01EF00
01FE00
01FE00
00FE00
00FC00
007C00
ENDCHAR
STARTCHAR 0057
ENCODING 87
SWIDTH 514 0
DWIDTH 25 0
BBX 21 30 2 0
BITMAP
F00078
F00078
F00078
F00078
F00078
F00078
F00078
F00078
F00078
F00070
F00070
F00070
F0F070
F0F070
F0F870
F1F870
F1FC70
F1DC70
739C70
739E70
738E70
770E70
770F70
7707E0
7E07E0
7E07E0
7E03E0
7C03E0
7C03E0
3C01E0
ENDCHAR
STARTCHAR 0058
ENCODING 88
SWIDTH 514 0
DWIDTH 25 0
BBX 22 30 1 0
BITMAP
78007C
3C0078
3E00F0
1E01F0
1F01E0
0F03E0
0F83C0
0787C0
03C780
03EF00
01FF00
01FE00
00FE00
00FC00
007C00
00FC00
00FE00
01FE00
01FF00
03CF80
07C780
0787C0
0F83C0
0F03E0
1E01F0
1E00F0
3C00F8
7C0078
78007C
F8003C
ENDCHAR
STARTCHAR 0059
ENCODING 89
SWIDTH 514 0
DWIDTH 25 0
BBX 23 30 1 0
BITMAP
F0003E
F8003C
78007C
7C0078
7C0078
3C00F8
3E00F0
1E01F0
1F01E0
0F83E0
0F83C0
07C780
03C780
03EF00
01FF00
01FE00
00FE00
00FC00
007800
007800
007800
007800
007800
007800
007800
007800
007800
007800
007800
007800
ENDCHAR
STARTCHAR 005A
ENCODING 90
SWIDTH 514 0
DWIDTH 25 0
BBX 19 30 3 0
BITMAP
FFFFE0
FFFFE0
FFFFE0
0003C0
0007C0
000780
000F00
001F00
001E00
003C00
007C00
007800
00F800
01F000
01E000
03E000
03C000
07C000
078000
0F0000
1F0000
1E0000
3E0000
3C0000
7C0000
780000
F80000
FFFFE0
FFFFE0
FFFFE0
ENDCHAR
STARTCHAR 005B
ENCODING 91
SWIDTH 514 0
DWIDTH 25 0
BBX 12 42 7 -8
BITMAP
FFF0
FFF0
FFF0
F000
F000
F000
F000
F000
F000
F000
F000
F000
F000
F000
F000
F000
F000
F000
F000
F000
F000
F000
F000
F000
F000
F000
F000
F000
F000
F000
F000
F000
F000
F000
F000
F000
F000
F000
F000
FFF0
FFF0
FFF0
ENDCHAR
STARTCHAR 005C
ENCODING 92
SWIDTH 514 0
DWIDTH 25 0
BBX 17 42 4 -8
BITMAP
F00000
F00000
F00000
780000
780000
780000
3C0000
3C0000
3C0000
3E0000
1E0000
1E0000
1F0000
0F0000
0F0000
0F8000
078000
078000
078000
03C000
03C000
03C000
01E000
01E000
01E000
00F000
00F000
00F000
007800
007800
007800
003C00
003C00
003C00
001E00
001E00
001E00
001F00
000F00
000F00
000F80
000780
ENDCHAR
STARTCHAR 005D
ENCODING 93
SWIDTH 514 0
DWIDTH 25 0
BBX 12 42 6 -8
BITMAP
FFF0
FFF0
FFF0
00F0
00F0
00F0
00F0
00F0
00F0
00F0
00F0
00F0
00F0
00F0
00F0
00F0
00F0
00F0
00F0
00F0
00F0
00F0
00F0
00F0
00F0
00F0
00F0
00F0
00F0
00F0
00F0
00F0
00F0
00F0
00F0
00F0
00F0
00F0
00F0
FFF0
FFF0
FFF0
ENDCHAR
STARTCHAR 005E
ENCODING 94
SWIDTH 514 0
DWIDTH 25 0
BBX 20 17 2 13
BITMAP
00F000
00F800
01F800
03FC00
03FE00
07DE00
078F00
0F0F00
0F0780
1E0780
1E03C0
3C03C0
7C01E0
7801F0
F800F0
F000F0
200040
ENDCHAR
STARTCHAR 005F
ENCODING 95
SWIDTH 514 0
DWIDTH 25 0
BBX 24 3 0 -8
BITMAP
FFFFFF
FFFFFF
FFFFFF
ENDCHAR
STARTCHAR 0060
ENCODING 96
SWIDTH 514 0
DWIDTH 25 0
BBX 8 9 8 25
BITMAP
20
70
F8
78
3C
1E
0F
07
02
ENDCHAR
STARTCHAR 0061
ENCODING 97
SWIDTH 514 0
DWIDTH 25 0
BBX 18 23 3 0
BITMAP
0FF800
3FFE00
3FFF00
3FFF80
100FC0
0007C0
0003C0
0003C0
0003C0
07FFC0
1FFFC0
3FFFC0
7C03C0
F803C0
F003C0
F003C0
F003C0
F803C0
FC03C0
7FFFC0
7FFFC0
1FFFC0
07FF00
ENDCHAR
STARTCHAR 0062
ENCODING 98
SWIDTH 514 0
DWIDTH 25 0
BBX 20 34 3 0
BITMAP
380000
F80000
F80000
F80000
F80000
F80000
F80000
F80000
F80000
F80000
F80000
F9F800
FFFE00
FFFF00
FFFF80
FE0FC0
F807C0
F803E0
F801E0
F801E0
F801E0
F801F0
F801F0
F801F0
F801E0
F801E0
F801E0
F803E0
F807C0
F81FC0
FFFF80
FFFF00
FFFE00
1FF000
ENDCHAR
STARTCHAR 0063
ENCODING 99
SWIDTH 514 0
DWIDTH 25 0
BBX 20 23 2 0
BITMAP
007FC0
03FFF0
0FFFE0
1FFFE0
3FC060
3E0000
7C0000
7C0000
780000
780000
F80000
F80000
F80000
780000
780000
7C0000
7C0000
3E0000
3FC030
1FFFF0
0FFFF0
03FFF0
00FF80
ENDCHAR
STARTCHAR 0064
ENCODING 100
SWIDTH 514 0
DWIDTH 25 0
BBX 19 34 2 0
BITMAP
0000E0
0001E0
0001E0
0001E0
0001E0
0001E0
0001E0
0001E0
0001E0
0001E0
0001E0
01F9E0
0FFFE0
1FFFE0
3FFFE0
3F07E0
7C01E0
7801E0
F801E0
F001E0
F001E0
F001E0
F001E0
F001E0
F001E0
F801E0
F801E0
7C01E0
7C01E0
3F01E0
1FFFE0
0FFFE0
07FFE0
01FF00
ENDCHAR
STARTCHAR 0065
ENCODING 101
SWIDTH 514 0
DWIDTH 25 0
BBX 20 23 2 0
BITMAP
01FC00
07FF00
0FFFC0
1FFFC0
3F07E0
7C01F0
7800F0
F800F0
F000F0
FFFFF0
FFFFF0
FFFFF0
F00000
F00000
F80000
F80000
7C0000
7E0000
3F8040
1FFFC0
0FFFE0
07FFE0
00FF00
ENDCHAR
STARTCHAR 0066
ENCODING 102
SWIDTH 514 0
DWIDTH 25 0
BBX 21 34 3 0
BITMAP
003FC0
00FFF8
01FFF0
03FFF0
03E030
07C000
078000
078000
078000
078000
078000
FFFFC0
FFFFC0
FFFFC0
078000
078000
078000
078000
078000
078000
078000
078000
078000
078000
078000
078000
078000
078000
078000
078000
078000
078000
078000
078000
ENDCHAR
STARTCHAR 0067
ENCODING 103
SWIDTH 514 0
DWIDTH 25 0
BBX 19 31 2 -8
BITMAP
01FF00
07FFE0
1FFFE0
3FFFE0
3F01E0
7C01E0
7801E0
F801E0
F001E0
F001E0
F001E0
F001E0
F001E0
F001E0
F801E0
7801E0
7C01E0
7E07E0
3FFFE0
1FFFE0
0FFFE0
03F9E0
0001E0
0001E0
0003E0
0003C0
300FC0
3FFF80
7FFF80
7FFE00
0FF800
ENDCHAR
STARTCHAR 0068
ENCODING 104
SWIDTH 514 0
DWIDTH 25 0
BBX 18 34 3 0
BITMAP
380000
F80000
F80000
F80000
F80000
F80000
F80000
F80000
F80000
F80000
F80000
FBF800
FFFE00
FFFF00
FFFF80
F81F80
F807C0
F807C0
F803C0
F803C0
F803C0
F803C0
F803C0
F803C0
F803C0
F803C0
F803C0
F803C0
F803C0
F803C0
F803C0
F803C0
F803C0
F803C0
ENDCHAR
STARTCHAR 0069
ENCODING 105
SWIDTH 514 0
DWIDTH 25 0
BBX 19 33 3 0
BITMAP
078000
0FC000
0FC000
0FC000
0FC000
078000
000000
000000
000000
000000
FFC000
FFC000
FFC000
03C000
03C000
03C000
03C000
03C000
03C000
03C000
03C000
03C000
03C000
03C000
03C000
03C000
03E000
01E000
01F060
01FFE0
00FFE0
007FE0
003F80
ENDCHAR
STARTCHAR 006A
ENCODING 106
SWIDTH 514 0
DWIDTH 25 0
BBX 15 41 4 -8
BITMAP
0078
00FC
00FC
00FC
00FC
0078
0000
0000
0000
0000
3FFE
3FFE
3FFE
001E
001E
001E
001E
001E
001E
001E
001E
001E
001E
001E
001E
001E
001E
001E
001E
001E
001E
001E
001E
001E
003E
003C
E07C
FFFC
FFF8
FFF0
1FC0
ENDCHAR
STARTCHAR 006B
ENCODING 107
SWIDTH 514 0
DWIDTH 25 0
BBX 20 34 3 0
BITMAP
380000
F80000
F80000
F80000
F80000
F80000
F80000
F80000
F80000
F80000
F80000
F803E0
F807C0
F80F80
F81F00
F83E00
F87C00
F8F800
F9F000
FBE000
FFC000
FF8000
FFC000
FFE000
F9F000
F8F800
F87C00
F83E00
F81F00
F80F80
F807C0
F803E0
F801E0
F801F0
ENDCHAR
STARTCHAR 006C
ENCODING 108
SWIDTH 514 0
DWIDTH 25 0
BBX 19 34 3 0
BITMAP
FFC000
FFC000
FFC000
03C000
03C000
03C000
03C000
03C000
03C000
03C000
03C000
03C000
03C000
03C000
03C000
03C000
03C000
03C000
03C000
03C000
03C000
03C000
03C000
03C000
03C000
03C000
03C000
03E000
01E000
01F060
01FFE0
00FFE0
00FFE0
003F80
ENDCHAR
STARTCHAR 006D
ENCODING 109
SWIDTH 514 0
DWIDTH 25 0
BBX 21 23 2 0
BITMAP
3F0F80
FFDFE0
FFFFF0
FFFFF0
F0F8F0
F0F078
F0F078
F07078
F07078
F07078
F07078
F07078
F07078
F07078
F00078
F00078
F00078
F00078
F00078
F00078
F00078
F00078
F00078
ENDCHAR
STARTCHAR 006E
ENCODING 110
SWIDTH 514 0
DWIDTH 25 0
BBX 18 23 3 0
BITMAP
1FF800
FFFE00
FFFF00
FFFF80
F81F80
F807C0
F807C0
F803C0
F803C0
F803C0
F803C0
F803C0
F803C0
F803C0
F803C0
F803C0
F803C0
F803C0
F803C0
F803C0
F803C0
F803C0
F803C0
ENDCHAR
STARTCHAR 006F
ENCODING 111
SWIDTH 514 0
DWIDTH 25 0
BBX 21 23 2 0
BITMAP
01F800
07FF00
1FFF80
1FFFC0
3F07E0
7C03E0
7801F0
F800F0
F800F0
F000F0
F000F0
F000F8
F000F8
F000F0
F000F0
F800F0
7801F0
7C03E0
3F07E0
1FFFC0
0FFF80
07FF00
01FC00
ENDCHAR
STARTCHAR 0070
ENCODING 112
SWIDTH 514 0
DWIDTH 25 0
BBX 20 31 3 -8
BITMAP
1FF000
FFFE00
FFFF00
FFFF80
F81FC0
F807C0
F803E0
F801E0
F801E0
F801E0
F801E0
F801F0
F801F0
F801E0
F801E0
F801E0
F803E0
F807C0
FE0FC0
FFFF80
FFFF00
FFFE00
FBF800
F80000
F80000
F80000
F80000
F80000
F80000
F80000
F80000
ENDCHAR
STARTCHAR 0071
ENCODING 113
SWIDTH 514 0
DWIDTH 25 0
BBX 19 31 2 -8
BITMAP
01FF00
07FFE0
0FFFE0
1FFFE0
3F01E0
7E01E0
7C01E0
F801E0
F801E0
F001E0
F001E0
F001E0
F001E0
F001E0
F001E0
F801E0
7801E0
7C01E0
3F07E0
3FFFE0
1FFFE0
0FFFE0
03F9E0
0001E0
0001E0
0001E0
0001E0
0001E0
0001E0
0001E0
0001E0
ENDCHAR
STARTCHAR 0072
ENCODING 114
SWIDTH 514 0
DWIDTH 25 0
BBX 16 23 5 0
BITMAP
07FE
7FFF
FFFF
FFFF
FC03
F000
F000
F000
F000
F000
F000
F000
F000
F000
F000
F000
F000
F000
F000
F000
F000
F000
F000
ENDCHAR
STARTCHAR 0073
ENCODING 115
SWIDTH 514 0
DWIDTH 25 0
BBX 18 23 3 0
BITMAP
03FE00
1FFF80
3FFF80
7FFF80
7C0180
780000
780000
780000
7E0000
3FC000
1FF800
0FFE00
03FF00
007F80
000FC0
0003C0
0003C0
4003C0
7807C0
7FFFC0
FFFF80
7FFF00
0FF800
ENDCHAR
STARTCHAR 0074
ENCODING 116
SWIDTH 514 0
DWIDTH 25 0
BBX 19 30 3 0
BITMAP
038000
078000
078000
078000
078000
078000
078000
FFFFE0
FFFFE0
FFFFE0
078000
078000
078000
078000
078000
078000
078000
078000
078000
078000
078000
078000
078000
078000
07C000
07E060
03FFE0
03FFE0
01FFE0
007F80
ENDCHAR
STARTCHAR 0075
ENCODING 117
SWIDTH 514 0
DWIDTH 25 0
BBX 18 23 3 0
BITMAP
F003C0
F003C0
F003C0
F003C0
F003C0
F003C0
F003C0
F003C0
F003C0
F003C0
F003C0
F003C0
F003C0
F003C0
F803C0
F803C0
7803C0
7C03C0
7E03C0
3FFFC0
1FFFC0
0FFFC0
03FE00
ENDCHAR
STARTCHAR 0076
ENCODING 118
SWIDTH 514 0
DWIDTH 25 0
BBX 21 23 2 0
BITMAP
F00078
F000F8
F800F0
F800F0
7801F0
7801E0
7C01E0
3C03E0
3C03C0
1E03C0
1E0780
1F0780
0F0780
0F0F00
0F8F00
079E00
079E00
03DE00
03FC00
01FC00
01F800
00F800
00F000
ENDCHAR
STARTCHAR 0077
ENCODING 119
SWIDTH 514 0
DWIDTH 25 0
BBX 23 23 1 0
BITMAP
F0001E
F0001C
F0001C
F0001C
F0003C
70383C
70783C
707C3C
787C3C
787C38
78FC38
78EE38
38CE78
39CE78
39C778
398770
3F87F0
3F83F0
1F03F0
1F03F0
1F01E0
1E01E0
1E00E0
ENDCHAR
STARTCHAR 0078
ENCODING 120
SWIDTH 514 0
DWIDTH 25 0
BBX 21 23 2 0
BITMAP
F800F0
7801E0
3C03E0
3E03C0
1F0780
0F0F00
079F00
07DE00
03FC00
01F800
01F800
00F800
01FC00
03FC00
07DE00
078F00
0F0F80
1E07C0
3E03C0
3C03E0
7801F0
F800F0
F000F8
ENDCHAR
STARTCHAR 0079
ENCODING 121
SWIDTH 514 0
DWIDTH 25 0
BBX 20 31 2 -8
BITMAP
F800F0
7800F0
7800F0
7C01F0
3C01E0
3C01E0
3E01E0
1E03E0
1E03C0
1F03C0
0F03C0
0F0780
078780
078780
078700
03CF00
03CF00
01EE00
01FE00
00FE00
00FC00
007C00
007800
007800
007000
00F000
83E000
FFE000
FFC000
FF8000
FE0000
ENDCHAR
STARTCHAR 007A
ENCODING 122
SWIDTH 514 0
DWIDTH 25 0
BBX 17 23 4 0
BITMAP
FFFF80
FFFF80
FFFF80
001F00
003E00
007C00
007C00
00F800
01F000
01E000
03E000
07C000
078000
0F8000
1F0000
1E0000
3E0000
7C0000
780000
F80000
FFFF80
FFFF80
FFFF80
ENDCHAR
STARTCHAR 007B
ENCODING 123
SWIDTH 514 0
DWIDTH 25 0
BBX 17 42 4 -8
BITMAP
007F80
01FF80
03FF80
03C000
038000
078000
078000
078000
078000
078000
078000
078000
078000
078000
078000
078000
078000
078000
0F0000
1F0000
FE0000
FC0000
FE0000
1F0000
0F0000
078000
078000
078000
078000
078000
078000
078000
078000
078000
078000
078000
078000
078000
03C000
03FF80
01FF80
007F80
ENDCHAR
STARTCHAR 007C
ENCODING 124
SWIDTH 514 0
DWIDTH 25 0
BBX 4 42 10 -8
BITMAP
F0
F0
F0
F0
F0
F0
F0
F0
F0
F0
F0
F0
F0
F0
F0
F0
F0
F0
F0
F0
F0
F0
F0
F0
F0
F0
F0
F0
F0
F0
F0
F0
F0
F0
F0
F0
F0
F0
F0
F0
F0
F0
ENDCHAR
STARTCHAR 007D
ENCODING 125
SWIDTH 514 0
DWIDTH 25 0
BBX 17 42 4 -8
BITMAP
FE0000
FF8000
FFC000
03E000
01E000
01E000
01E000
00E000
00E000
00E000
00E000
00E000
00E000
00E000
00E000
00E000
00E000
00F000
00F000
007800
007F80
001F80
007F80
00F800
00F000
00F000
00E000
00E000
00E000
00E000
00E000
00E000
00E000
00E000
00E000
01E000
01E000
01E000
03E000
FFC000
FF8000
FE0000
ENDCHAR
STARTCHAR 007E
ENCODING 126
SWIDTH 514 0
DWIDTH 25 0
BBX 21 8 2 9
BITMAP
0F0020
3FC078
7FE070
7FF8F0
F1FFF0
E07FE0
E01FC0
600F80
ENDCHAR
STARTCHAR 00A0
ENCODING 160
SWIDTH 514 0
DWIDTH 25 0
BBX 0 0 0 0
BITMAP
ENDCHAR
STARTCHAR 00A1
ENCODING 161
SWIDTH 514 0
DWIDTH 25 0
BBX 6 31 9 -8
BITMAP
78
FC
FC
FC
FC
FC
78
00
00
00
00
38
38
38
78
78
78
78
78
78
78
78
78
78
78
78
78
78
78
78
78
ENDCHAR
STARTCHAR 00A2
ENCODING 162
SWIDTH 514 0
DWIDTH 25 0
BBX 20 35 2 -5
BITMAP
003C00
003C00
003C00
003C00
003C00
003C00
007F80
03FFE0
0FFFE0
1FFFE0
3FC060
3E0000
7C0000
7C0000
780000
780000
F80000
F80000
F80000
F80000
780000
780000
7C0000
3C0000
3F0000
1FC030
0FFFF0
03FFF0
00FFE0
003C00
003C00
003C00
003C00
003C00
003C00
ENDCHAR
STARTCHAR 00A3
ENCODING 163
SWIDTH 514 0
DWIDTH 25 0
BBX 20 30 2 0
BITMAP
003FC0
00FFE0
03FFE0
03FFE0
07E060
07C000
078000
0F8000
0F0000
0F0000
0F0000
0F0000
0F0000
0F0000
FFFF80
FFFF80
FFFF80
0F0000
0F0000
0F0000
0F0000
0F0000
0F0000
0F0000
0F0000
0F0000
0F0000
1FFFF0
1FFFF0
1FFFF0
ENDCHAR
STARTCHAR 00A4
ENCODING 164
SWIDTH 514 0
DWIDTH 25 0
BBX 21 21 2 5
BITMAP
200020
700070
F9F8F8
7FFFF0
3FFFE0
1F0FC0
1E03C0
3C01C0
3801C0
3801E0
3801E0
3801E0
3801C0
3C01C0
1E03C0
1F0FC0
3FFFE0
7FFFF0
F9F8F8
700070
200020
ENDCHAR
STARTCHAR 00A5
ENCODING 165
SWIDTH 514 0
DWIDTH 25 0
BBX 23 30 1 0
BITMAP
F0003E
F8003C
78007C
7C0078
3C00F0
1E00F0
1E01E0
0F01E0
0F03C0
0783C0
07C780
03C700
01EF00
01FE00
00FE00
3FFFF0
3FFFF0
3FFFF0
007800
007800
007800
007800
3FFFF0
3FFFF0
3FFFF0
007800
007800
007800
007800
007800
ENDCHAR
STARTCHAR 00A6
ENCODING 166
SWIDTH 514 0
DWIDTH 25 0
BBX 4 42 10 -8
BITMAP
F0
F0
F0
F0
F0
F0
F0
F0
F0
F0
F0
F0
F0
F0
F0
F0
F0
00
00
00
00
00
00
00
00
F0
F0
F0
F0
F0
F0
F0
F0
F0
F0
F0
F0
F0
F0
F0
F0
F0
ENDCHAR
STARTCHAR 00A7
ENCODING 167
SWIDTH 514 0
DWIDTH 25 0
BBX 18 36 3 -5
BITMAP
03FC00
0FFF80
1FFF80
1FFF80
3E0300
3C0000
3C0000
3C0000
3E0000
3F8000
1FF000
0FFC00
1FFF00
3FFF80
783F80
7807C0
F003C0
F003C0
F003C0
F803C0
7C0380
7F8780
3FFF00
1FFE00
07FE00
00FF00
001F80
000F80
000780
000780
000780
600F80
7FFF00
7FFF00
7FFE00
1FF000
ENDCHAR
STARTCHAR 00A8
ENCODING 168
SWIDTH 514 0
DWIDTH 25 0
BBX 13 5 6 27
BITMAP
7070
F0F8
F8F8
F0F8
7070
ENDCHAR
STARTCHAR 00A9
ENCODING 169
SWIDTH 514 0
DWIDTH 25 0
BBX 21 23 2 0
BITMAP
01FC00
07FF00
1FFF80
3F07C0
3C01E0
7800E0
70FC70
E1FC70
E3F838
E78038
E70038
E70038
E70038
E78038
E3F838
E3FC70
70F870
7800E0
3C01E0
3F07C0
1FFF80
07FF00
01F800
ENDCHAR
STARTCHAR 00AA
ENCODING 170
SWIDTH 514 0
DWIDTH 25 0
BBX 13 15 6 15
BITMAP
3FC0
3FE0
3FF0
00F8
0078
0038
1FF8
7FF8
FFF8
F038
E038
F038
FFF8
7FF8
1FF8
ENDCHAR
STARTCHAR 00AB
ENCODING 171
SWIDTH 514 0
DWIDTH 25 0
BBX 17 17 3 4
BITMAP
020300
070380
0F0780
0E0F00
1E0E00
3C1E00
7C3C00
783C00
F07800
783C00
783C00
3C1E00
1E0E00
1E0F00
0F0780
070380
060200
ENDCHAR
STARTCHAR 00AC
ENCODING 172
SWIDTH 514 0
DWIDTH 25 0
BBX 20 14 2 3
BITMAP
FFFFF0
FFFFF0
FFFFF0
000070
000070
000070
000070
000070
000070
000070
000070
000070
000070
000070
ENDCHAR
STARTCHAR 00AD
ENCODING 173
SWIDTH 514 0
DWIDTH 25 0
BBX 11 4 7 11
BITMAP
FFE0
FFE0
FFE0
FFE0
ENDCHAR
STARTCHAR 00AE
ENCODING 174
SWIDTH 514 0
DWIDTH 25 0
BBX 21 23 2 0
BITMAP
01FC00
07FF00
1FFF80
3F07C0
3C01E0
7800E0
73F870
E3FC70
E3FE38
E38E38
E38E38
E3FE38
E3FC38
E3F838
E39C38
E38C70
738E70
7800E0
3C01E0
3F07C0
1FFF80
07FF00
01F800
ENDCHAR
STARTCHAR 00AF
ENCODING 175
SWIDTH 514 0
DWIDTH 25 0
BBX 12 3 6 28
BITMAP
FFF0
FFF0
FFF0
ENDCHAR
STARTCHAR 00B0
ENCODING 176
SWIDTH 514 0
DWIDTH 25 0
BBX 12 13 6 22
BITMAP
0F80
3FC0
7FE0
78F0
F070
E070
E070
E070
F070
78F0
7FE0
3FC0
0F80
ENDCHAR
STARTCHAR 00B1
ENCODING 177
SWIDTH 514 0
DWIDTH 25 0
BBX 20 27 2 0
BITMAP
00F000
00F000
00F000
00F000
00F000
00F000
00F000
00F000
00F000
FFFFF0
FFFFF0
FFFFF0
00F000
00F000
00F000
00F000
00F000
00F000
00F000
00F000
00F000
000000
000000
000000
FFFFF0
FFFFF0
FFFFF0
ENDCHAR
STARTCHAR 00B2
ENCODING 178
SWIDTH 514 0
DWIDTH 25 0
BBX 12 16 6 14
BITMAP
1F80
7FE0
FFE0
70F0
40F0
00F0
00E0
01C0
0380
0700
1E00
3C00
7800
7FF0
7FF0
7FF0
ENDCHAR
STARTCHAR 00B3
ENCODING 179
SWIDTH 514 0
DWIDTH 25 0
BBX 12 16 6 14
BITMAP
1F80
FFC0
7FE0
60E0
00E0
01E0
1FC0
1FC0
1FE0
00F0
0070
0070
40F0
FFF0
FFE0
3F80
ENDCHAR
STARTCHAR 00B4
ENCODING 180
SWIDTH 514 0
DWIDTH 25 0
BBX 7 9 9 25
BITMAP
08
0C
1E
3E
7C
78
F0
E0
40
ENDCHAR
STARTCHAR 00B5
ENCODING 181
SWIDTH 514 0
DWIDTH 25 0
BBX 18 31 3 -8
BITMAP
F803C0
F803C0
F803C0
F803C0
F803C0
F803C0
F803C0
F803C0
F803C0
F803C0
F803C0
F803C0
F803C0
F803C0
F803C0
F803C0
F803C0
FC03C0
FE03C0
FFFFC0
FFFFC0
FFFFC0
F3FE00
F80000
F80000
F80000
F80000
F80000
F80000
F80000
F80000
ENDCHAR
STARTCHAR 00B6
ENCODING 182
SWIDTH 514 0
DWIDTH 25 0
BBX 21 39 1 -8
BITMAP
007FF0
03FFF8
0FFFF8
1FF878
3FF878
7FF878
7FF878
7FF878
FFF878
FFF878
FFF878
FFF878
7FF878
7FF878
7FF878
3FF878
1FF878
07F878
01F878
003878
003878
003878
003878
003878
003878
003878
003878
003878
003878
003878
003878
003878
003878
003878
003878
003878
003878
003878
003878
ENDCHAR
STARTCHAR 00B7
ENCODING 183
SWIDTH 514 0
DWIDTH 25 0
BBX 7 7 9 10
BITMAP
78
FC
FE
FE
FE
FC
78
ENDCHAR
STARTCHAR 00B8
ENCODING 184
SWIDTH 514 0
DWIDTH 25 0
BBX 8 9 8 -8
BITMAP
0C
1C
1C
3C
0E
0F
FF
FE
FC
ENDCHAR
STARTCHAR 00B9
ENCODING 185
SWIDTH 514 0
DWIDTH 25 0
BBX 13 16 6 14
BITMAP
0300
0700
1F00
7F00
FF00
4700
0700
0700
0700
0700
0700
0700
0700
7FF8
7FF8
7FF8
ENDCHAR
STARTCHAR 00BA
ENCODING 186
SWIDTH 514 0
DWIDTH 25 0
BBX 16 15 4 15
BITMAP
07E0
1FF8
3FFC
7C1E
780F
7007
F007
F007
F007
7007
780F
7C1E
3FFC
1FF8
07E0
ENDCHAR
STARTCHAR 00BB
ENCODING 187
SWIDTH 514 0
DWIDTH 25 0
BBX 17 17 4 4
BITMAP
201000
F07800
703800
783C00
3C1E00
1E1E00
1E0F00
0F0780
0F8780
0F0780
1E0F00
1E1E00
3C1E00
783C00
703800
F07800
201000
ENDCHAR
STARTCHAR 00BC
ENCODING 188
SWIDTH 514 0
DWIDTH 25 0
BBX 22 31 1 0
BITMAP
060000
0E003C
3E0038
7E0078
EE0070
CE00E0
0E01E0
0E01C0
0E03C0
0E0380
0E0700
0E0F00
0E0E00
001C00
003C00
003800
007800
007000
00E000
01E0F8
01C1F8
03C1B8
0783B8
070738
0F0638
0E0E38
1C1FFC
3C1FFC
380038
780038
700038
ENDCHAR
STARTCHAR 00BD
ENCODING 189
SWIDTH 514 0
DWIDTH 25 0
BBX 23 31 1 0
BITMAP
060000
0E003C
1E0078
7E0070
FE00F0
4E00E0
0E01C0
0E03C0
0E0380
0E0780
0E0700
0E0E00
0E1E00
001C00
003800
007800
007000
00F000
00E000
01C1F0
03C7F8
0387FC
07831C
0F001C
0E001C
1E0038
1C00F0
3803E0
780780
7007FE
F007FE
ENDCHAR
STARTCHAR 00BE
ENCODING 190
SWIDTH 514 0
DWIDTH 25 0
BBX 22 31 1 0
BITMAP
7E0000
FF001C
43803C
038078
078070
3F00F0
3F00E0
0381C0
0183C0
018380
438780
FF0700
FE0E00
001E00
001C00
003C00
007800
007000
00F000
00E0F8
01C1F8
03C1B8
0383B8
078738
0F0638
0E0E38
1E1FFC
1C1FFC
380038
780038
700038
ENDCHAR
STARTCHAR 00BF
ENCODING 191
SWIDTH 514 0
DWIDTH 25 0
BBX 15 31 5 -8
BITMAP
01C0
03E0
07F0
07F0
07F0
03E0
01C0
0000
0000
0000
0000
01E0
01E0
03C0
03C0
0780
0F80
1F00
3C00
7800
7800
F000
F000
F000
F000
F000
FC0C
FFFE
7FFE
3FFC
0FE0
ENDCHAR
STARTCHAR 00C0
ENCODING 192
SWIDTH 514 0
DWIDTH 25 0
BBX 23 41 1 0
BITMAP
004000
00E000
01F000
00F800
007800
003C00
001E00
000E00
000400
000000
000000
007C00
00FC00
00FE00
01FE00
01EF00
01CF00
03CF00
03C780
038780
078780
0783C0
0703C0
0F03C0
0F01C0
0F01E0
1E01E0
1E01E0
1E00F0
1C00F0
3FFFF0
3FFFF0
3FFFF8
780078
780078
78003C
78003C
F0003C
F0003C
F0003E
F0001E
ENDCHAR
STARTCHAR 00C1
ENCODING 193
SWIDTH 514 0
DWIDTH 25 0
BBX 23 41 1 0
BITMAP
000800
000C00
001E00
003E00
007C00
00F800
00F000
00E000
004000
000000
000000
007C00
00FC00
00FE00
01FE00
01EF00
01CF00
03CF00
03C780
038780
078780
0783C0
0703C0
0F03C0
0F01C0
0F01E0
1E01E0
1E01E0
1E00F0
1C00F0
3FFFF0
3FFFF0
3FFFF8
780078
780078
78003C
78003C
F0003C
F0003C
F0003E
F0001E
ENDCHAR
STARTCHAR 00C2
ENCODING 194
SWIDTH 514 0
DWIDTH 25 0
BBX 23 40 1 0
BITMAP
001000
003800
007C00
00FE00
01FF00
03C780
038380
010100
000000
000000
007C00
00FC00
00FE00
01FE00
01EF00
01CF00
03CF00
03C780
038780
078780
0783C0
0703C0
0F03C0
0F01C0
0F01E0
1E01E0
1E01E0
1E00F0
1C00F0
3FFFF0
3FFFF0
3FFFF8
780078
780078
78003C
78003C
F0003C
F0003C
F0003E
F0001E
ENDCHAR
STARTCHAR 00C3
ENCODING 195
SWIDTH 514 0
DWIDTH 25 0
BBX 23 39 1 0
BITMAP
01C080
03F1C0
07FF80
073F80
020E00
000000
000000
000000
000000
007C00
00FC00
00FE00
01FE00
01EF00
01CF00
03CF00
03C780
038780
078780
0783C0
0703C0
0F03C0
0F01C0
0F01E0
1E01E0
1E01E0
1E00F0
1C00F0
3FFFF0
3FFFF0
3FFFF8
780078
780078
78003C
78003C
F0003C
F0003C
F0003E
F0001E
ENDCHAR
STARTCHAR 00C4
ENCODING 196
SWIDTH 514 0
DWIDTH 25 0
BBX 23 39 1 0
BITMAP
038380
0787C0
07C7C0
0787C0
038380
000000
000000
000000
000000
007C00
00FC00
00FE00
01FE00
01EF00
01CF00
03CF00
03C780
038780
078780
0783C0
0703C0
0F03C0
0F01C0
0F01E0
1E01E0
1E01E0
1E00F0
1C00F0
3FFFF0
3FFFF0
3FFFF8
780078
780078
78003C
78003C
F0003C
F0003C
F0003E
F0001E
ENDCHAR
STARTCHAR 00C5
ENCODING 197
SWIDTH 514 0
DWIDTH 25 0
BBX 23 37 1 0
BITMAP
007800
00FE00
01C600
018700
018300
018700
01C600
00FE00
00FC00
00FE00
01FE00
01EF00
01CF00
03CF00
03C780
038780
078780
0783C0
0703C0
0F03C0
0F01C0
0F01E0
1E01E0
1E01E0
1E00F0
1C00F0
3FFFF0
3FFFF8
3FFFF8
780078
780078
78003C
78003C
F0003C
F0003C
F0003E
F0001E
ENDCHAR
STARTCHAR 00C6
ENCODING 198
SWIDTH 514 0
DWIDTH 25 0
BBX 23 30 1 0
BITMAP
003FFC
007FFC
007FFC
00EF00
00EF00
00EF00
01EF00
01CF00
01CF00
03CF00
038F00
038F00
078F00
078FF8
070FF8
0F0FF8
0F0F00
0E0F00
1E0F00
1FFF00
1FFF00
1FFF00
3C0F00
3C0F00
3C0F00
780F00
780F00
780FFE
780FFE
F00FFE
ENDCHAR
STARTCHAR 00C7
ENCODING 199
SWIDTH 514 0
DWIDTH 25 0
BBX 20 38 2 -8
BITMAP
007F00
01FFE0
07FFF0
0FFFF0
1FC0F0
1F0020
3E0000
3C0000
7C0000
780000
780000
F80000
F80000
F00000
F00000
F00000
F00000
F80000
F80000
780000
780000
7C0000
7C0000
3E0000
3F0010
1FC0F0
0FFFF0
07FFF0
03FFE0
007F80
001C00
001C00
003E00
000F00
000F00
00FF00
00FE00
00FC00
ENDCHAR
STARTCHAR 00C8
ENCODING 200
SWIDTH 514 0
DWIDTH 25 0
BBX 19 41 4 0
BITMAP
010000
030000
078000
03C000
03E000
01F000
00F000
007800
002000
000000
000000
FFFF80
FFFF80
FFFF80
F00000
F00000
F00000
F00000
F00000
F00000
F00000
F00000
F00000
F00000
FFFF00
FFFF00
FFFF00
F00000
F00000
F00000
F00000
F00000
F00000
F00000
F00000
F00000
F00000
F00000
FFFFE0
FFFFE0
FFFFE0
ENDCHAR
STARTCHAR 00C9
ENCODING 201
SWIDTH 514 0
DWIDTH 25 0
BBX 19 41 4 0
BITMAP
001000
003800
007C00
00F800
00F000
01E000
03C000
038000
010000
000000
000000
FFFF80
FFFF80
FFFF80
F00000
F00000
F00000
F00000
F00000
F00000
F00000
F00000
F00000
F00000
FFFF00
FFFF00
FFFF00
F00000
F00000
F00000
F00000
F00000
F00000
F00000
F00000
F00000
F00000
F00000
FFFFE0
FFFFE0
FFFFE0
ENDCHAR
STARTCHAR 00CA
ENCODING 202
SWIDTH 514 0
DWIDTH 25 0
BBX 19 40 4 0
BITMAP
004000
00E000
01F000
03F800
07FC00
0F3C00
0E0E00
080400
000000
000000
FFFF80
FFFF80
FFFF80
F00000
F00000
F00000
F00000
F00000
F00000
F00000
F00000
F00000
F00000
FFFF00
FFFF00
FFFF00
F00000
F00000
F00000
F00000
F00000
F00000
F00000
F00000
F00000
F00000
F00000
FFFFE0
FFFFE0
FFFFE0
ENDCHAR
STARTCHAR 00CB
ENCODING 203
SWIDTH 514 0
DWIDTH 25 0
BBX 19 39 4 0
BITMAP
1E0E00
1E1F00
3F1F00
1E1F00
1C0E00
000000
000000
000000
000000
FFFF80
FFFF80
FFFF80
F00000
F00000
F00000
F00000
F00000
F00000
F00000
F00000
F00000
F00000
FFFF00
FFFF00
FFFF00
F00000
F00000
F00000
F00000
F00000
F00000
F00000
F00000
F00000
F00000
F00000
FFFFE0
FFFFE0
FFFFE0
ENDCHAR
STARTCHAR 00CC
ENCODING 204
SWIDTH 514 0
DWIDTH 25 0
BBX 16 41 4 0
BITMAP
0200
0700
0F80
07C0
03C0
01E0
00F0
0070
0020
0000
0000
FFFF
FFFF
FFFF
03C0
03C0
03C0
03C0
03C0
03C0
03C0
03C0
03C0
03C0
03C0
03C0
03C0
03C0
03C0
03C0
03C0
03C0
03C0
03C0
03C0
03C0
03C0
03C0
FFFF
FFFF
FFFF
ENDCHAR
STARTCHAR 00CD
ENCODING 205
SWIDTH 514 0
DWIDTH 25 0
BBX 16 41 4 0
BITMAP
0020
0070
00F8
00F0
01E0
03C0
0780
0700
0200
0000
0000
FFFF
FFFF
FFFF
03C0
03C0
03C0
03C0
03C0
03C0
03C0
03C0
03C0
03C0
03C0
03C0
03C0
03C0
03C0
03C0
03C0
03C0
03C0
03C0
03C0
03C0
03C0
03C0
FFFF
FFFF
FFFF
ENDCHAR
STARTCHAR 00CE
ENCODING 206
SWIDTH 514 0
DWIDTH 25 0
BBX 16 40 4 0
BITMAP
0080
01C0
03E0
07F0
0FF8
1E3C
1C1C
0808
0000
0000
FFFF
FFFF
FFFF
03C0
03C0
03C0
03C0
03C0
03C0
03C0
03C0
03C0
03C0
03C0
03C0
03C0
03C0
03C0
03C0
03C0
03C0
03C0
03C0
03C0
03C0
03C0
03C0
FFFF
FFFF
FFFF
ENDCHAR
STARTCHAR 00CF
ENCODING 207
SWIDTH 514 0
DWIDTH 25 0
BBX 16 39 4 0
BITMAP
1C1C
3C3E
3E3E
3C3E
1C1C
0000
0000
0000
0000
FFFF
FFFF
FFFF
03C0
03C0
03C0
03C0
03C0
03C0
03C0
03C0
03C0
03C0
03C0
03C0
03C0
03C0
03C0
03C0
03C0
03C0
03C0
03C0
03C0
03C0
03C0
03C0
FFFF
FFFF
FFFF
ENDCHAR
STARTCHAR 00D0
ENCODING 208
SWIDTH 514 0
DWIDTH 25 0
BBX 22 30 1 0
BITMAP
0FF800
3FFE00
3FFF80
3FFFC0
3E0FE0
3E03E0
3E01F0
3E00F0
3E00F8
3E0078
3E0078
3E0078
3E0078
FFE078
FFE07C
FFE07C
3E0078
3E0078
3E0078
3E0078
3E0078
3E00F8
3E00F0
3E01F0
3E03E0
3E0FE0
3FFFC0
3FFF80
3FFE00
1FF800
ENDCHAR
STARTCHAR 00D1
ENCODING 209
SWIDTH 514 0
DWIDTH 25 0
BBX 19 39 3 0
BITMAP
070200
0FC700
1FFE00
1CFE00
083800
000000
000000
000000
000000
F001E0
F801E0
F801E0
FC01E0
FC01E0
FE01E0
EE01E0
EF01E0
E701E0
E781E0
E3C1E0
E3C1E0
E1E1E0
E1E1E0
E0E1E0
E0F1E0
E071E0
E079E0
E039E0
E03DE0
E01DE0
E01DE0
E01FE0
E00FE0
E00FE0
E007E0
E007E0
E003E0
E003E0
E003E0
ENDCHAR
STARTCHAR 00D2
ENCODING 210
SWIDTH 514 0
DWIDTH 25 0
BBX 22 41 1 0
BITMAP
004000
00E000
01F000
00F800
007800
003C00
001E00
000E00
000400
000000
000000
00FE00
03FF80
0FFFC0
0FFFE0
1F83F0
3E01F0
3C00F8
7C0078
780078
78007C
78003C
78003C
F8003C
F8003C
F8003C
F8003C
F8003C
F8003C
78003C
78003C
78007C
780078
7C0078
3C00F8
3E01F0
1F83F0
1FFFE0
0FFFC0
03FF80
00FE00
ENDCHAR
STARTCHAR 00D3
ENCODING 211
SWIDTH 514 0
DWIDTH 25 0
BBX 22 41 1 0
BITMAP
000400
000E00
001F00
001E00
003C00
007800
00F000
00E000
004000
000000
000000
00FE00
03FF80
0FFFC0
0FFFE0
1F83F0
3E01F0
3C00F8
7C0078
780078
78007C
78003C
78003C
F8003C
F8003C
F8003C
F8003C
F8003C
F8003C
78003C
78003C
78007C
780078
7C0078
3C00F8
3E01F0
1F83F0
1FFFE0
0FFFC0
03FF80
00FE00
ENDCHAR
STARTCHAR 00D4
ENCODING 212
SWIDTH 514 0
DWIDTH 25 0
BBX 22 40 1 0
BITMAP
001000
003800
007C00
00FE00
01FF00
03C780
038380
010100
000000
000000
00FE00
03FF80
0FFFC0
0FFFE0
1F83F0
3E01F0
3C00F8
7C0078
780078
78007C
78003C
78003C
F8003C
F8003C
F8003C
F8003C
F8003C
F8003C
78003C
78003C
78007C
780078
7C0078
3C00F8
3E01F0
1F83F0
1FFFE0
0FFFC0
03FF80
00FE00
ENDCHAR
STARTCHAR 00D5
ENCODING 213
SWIDTH 514 0
DWIDTH 25 0
BBX 22 39 1 0
BITMAP
01C080
03F1C0
07FF80
073F80
020E00
000000
000000
000000
000000
00FE00
03FF80
0FFFC0
0FFFE0
1F83F0
3E01F0
3C00F8
7C0078
780078
78007C
78003C
78003C
F8003C
F8003C
F8003C
F8003C
F8003C
F8003C
78003C
78003C
78007C
780078
7C0078
3C00F8
3E01F0
1F83F0
1FFFE0
0FFFC0
03FF80
00FE00
ENDCHAR
STARTCHAR 00D6
ENCODING 214
SWIDTH 514 0
DWIDTH 25 0
BBX 22 39 1 0
BITMAP
038380
0787C0
07C7C0
0787C0
038380
000000
000000
000000
000000
00FE00
03FF80
0FFFC0
0FFFE0
1F83F0
3E01F0
3C00F8
7C0078
780078
78007C
78003C
78003C
F8003C
F8003C
F8003C
F8003C
F8003C
F8003C
78003C
78003C
78007C
780078
7C0078
3C00F8
3E01F0
1F83F0
1FFFE0
0FFFC0
03FF80
00FE00
ENDCHAR
STARTCHAR 00D7
ENCODING 215
SWIDTH 514 0
DWIDTH 25 0
BBX 18 18 3 4
BITMAP
200100
700380
F807C0
7C0F80
3E1F00
1F3E00
0FFC00
07F800
03F000
03F000
07F800
0FFC00
1F3E00
3E1F00
7C0F80
F807C0
700380
200100
ENDCHAR
STARTCHAR 00D8
ENCODING 216
SWIDTH 514 0
DWIDTH 25 0
BBX 22 32 1 -1
BITMAP
000040
00FFF0
03FFF0
0FFFE0
0FFFE0
1F83F0
3E03F0
3C07F8
7C07F8
780F78
780F3C
781E3C
781E3C
F83C3C
F83C3C
F8783C
F8783C
F8F03C
F8F03C
79E03C
79E03C
7BC07C
7BC078
7F8078
3F80F8
3F01F0
1F03F0
1FFFE0
1FFFC0
3FFF80
3DFE00
080000
ENDCHAR
STARTCHAR 00D9
ENCODING 217
SWIDTH 514 0
DWIDTH 25 0
BBX 20 41 2 0
BITMAP
008000
01C000
03E000
01E000
00F000
007800
003C00
001C00
000800
000000
000000
F000F0
F000F0
F000F0
F000F0
F000F0
F000F0
F000F0
F000F0
F000F0
F000F0
F000F0
F000F0
F000F0
F000F0
F000F0
F000F0
F000F0
F000F0
F000F0
F000F0
F000F0
F800F0
7800F0
7801F0
7C03E0
3E07E0
3FFFC0
1FFFC0
0FFF00
03FC00
ENDCHAR
STARTCHAR 00DA
ENCODING 218
SWIDTH 514 0
DWIDTH 25 0
BBX 20 41 2 0
BITMAP
000800
001C00
003E00
003C00
007800
00F000
01E000
01C000
008000
000000
000000
F000F0
F000F0
F000F0
F000F0
F000F0
F000F0
F000F0
F000F0
F000F0
F000F0
F000F0
F000F0
F000F0
F000F0
F000F0
F000F0
F000F0
F000F0
F000F0
F000F0
F000F0
F800F0
7800F0
7801F0
7C03E0
3E07E0
3FFFC0
1FFFC0
0FFF00
03FC00
ENDCHAR
STARTCHAR 00DB
ENCODING 219
SWIDTH 514 0
DWIDTH 25 0
BBX 20 40 2 0
BITMAP
002000
007000
00F800
01FC00
03FE00
078F00
070700
020200
000000
000000
F000F0
F000F0
F000F0
F000F0
F000F0
F000F0
F000F0
F000F0
F000F0
F000F0
F000F0
F000F0
F000F0
F000F0
F000F0
F000F0
F000F0
F000F0
F000F0
F000F0
F000F0
F800F0
7800F0
7801F0
7C03E0
3E07E0
3FFFC0
1FFFC0
0FFF00
03FC00
ENDCHAR
STARTCHAR 00DC
ENCODING 220
SWIDTH 514 0
DWIDTH 25 0
BBX 20 39 2 0
BITMAP
070700
0F0F80
0F8F80
0F0F80
070700
000000
000000
000000
000000
F000F0
F000F0
F000F0
F000F0
F000F0
F000F0
F000F0
F000F0
F000F0
F000F0
F000F0
F000F0
F000F0
F000F0
F000F0
F000F0
F000F0
F000F0
F000F0
F000F0
F000F0
F800F0
7800F0
7801F0
7C03E0
3E07E0
3FFFC0
1FFFC0
0FFF00
03FC00
ENDCHAR
STARTCHAR 00DD
ENCODING 221
SWIDTH 514 0
DWIDTH 25 0
BBX 23 41 1 0
BITMAP
000400
000E00
001F00
001E00
003C00
007800
00F000
00E000
004000
000000
000000
F0003E
F8003C
78007C
7C0078
7C0078
3C00F8
3E00F0
1E01F0
1F01E0
0F83E0
0F83C0
07C780
03C780
03EF00
01FF00
01FE00
00FE00
00FC00
007800
007800
007800
007800
007800
007800
007800
007800
007800
007800
007800
007800
ENDCHAR
STARTCHAR 00DE
ENCODING 222
SWIDTH 514 0
DWIDTH 25 0
BBX 18 30 4 0
BITMAP
F00000
F00000
F00000
F00000
F00000
FFF000
FFFC00
FFFF00
F01F80
F00F80
F007C0
F003C0
F003C0
F003C0
F003C0
F003C0
F003C0
F007C0
F00780
F00F80
F03F00
FFFE00
FFFC00
FFE000
F00000
F00000
F00000
F00000
F00000
F00000
ENDCHAR
STARTCHAR 00DF
ENCODING 223
SWIDTH 514 0
DWIDTH 25 0
BBX 20 34 3 0
BITMAP
03F000
0FFC00
1FFE00
3FFF00
3E1F00
7C0F00
780F80
780780
780F00
F80F00
F81E00
F83E00
F87C00
F8F800
F8F000
F9F000
F9F000
F9F000
F8F800
F8FE00
F83F80
F81FC0
F807E0
F801F0
F800F0
F800F0
F800F0
F800F0
F800F0
F9C1F0
F9FFE0
F9FFE0
F9FFC0
F87F00
ENDCHAR
STARTCHAR 00E0
ENCODING 224
SWIDTH 514 0
DWIDTH 25 0
BBX 18 34 3 0
BITMAP
010000
038000
07C000
03C000
01E000
00F000
007800
003800
001000
000000
000000
0FF800
3FFE00
3FFF00
3FFF80
100FC0
0007C0
0003C0
0003C0
0003C0
07FFC0
1FFFC0
3FFFC0
7C03C0
F803C0
F003C0
F003C0
F003C0
F803C0
FC03C0
7FFFC0
7FFFC0
1FFFC0
07FF00
ENDCHAR
STARTCHAR 00E1
ENCODING 225
SWIDTH 514 0
DWIDTH 25 0
BBX 18 34 3 0
BITMAP
001000
001800
003C00
007C00
00F800
01F000
01E000
01C000
008000
000000
000000
0FF800
3FFE00
3FFF00
3FFF80
100FC0
0007C0
0003C0
0003C0
0003C0
07FFC0
1FFFC0
3FFFC0
7C03C0
F803C0
F003C0
F003C0
F003C0
F803C0
FC03C0
7FFFC0
7FFFC0
1FFFC0
07FF00
ENDCHAR
STARTCHAR 00E2
ENCODING 226
SWIDTH 514 0
DWIDTH 25 0
BBX 18 33 3 0
BITMAP
004000
00E000
01F000
03F800
07FC00
0F1E00
0E0E00
040400
000000
000000
0FF800
3FFE00
3FFF00
3FFF80
100FC0
0007C0
0003C0
0003C0
0003C0
07FFC0
1FFFC0
3FFFC0
7C03C0
F803C0
F003C0
F003C0
F003C0
F803C0
FC03C0
7FFFC0
7FFFC0
1FFFC0
07FF00
ENDCHAR
STARTCHAR 00E3
ENCODING 227
SWIDTH 514 0
DWIDTH 25 0
BBX 18 32 3 0
BITMAP
070200
0FC700
1FFE00
1CFE00
083800
000000
000000
000000
000000
0FF800
3FFE00
3FFF00
3FFF80
100FC0
0007C0
0003C0
0003C0
0003C0
07FFC0
1FFFC0
3FFFC0
7C03C0
F803C0
F003C0
F003C0
F003C0
F803C0
FC03C0
7FFFC0
7FFFC0
1FFFC0
07FF00
ENDCHAR
STARTCHAR 00E4
ENCODING 228
SWIDTH 514 0
DWIDTH 25 0
BBX 18 32 3 0
BITMAP
0E0E00
1E1F00
1F1F00
1E1F00
0E0E00
000000
000000
000000
000000
0FF800
3FFE00
3FFF00
3FFF80
100FC0
0007C0
0003C0
0003C0
0003C0
07FFC0
1FFFC0
3FFFC0
7C03C0
F803C0
F003C0
F003C0
F003C0
F803C0
FC03C0
7FFFC0
7FFFC0
1FFFC0
07FF00
ENDCHAR
STARTCHAR 00E5
ENCODING 229
SWIDTH 514 0
DWIDTH 25 0
BBX 18 34 3 0
BITMAP
01E000
03F800
071800
061C00
060C00
061C00
071800
03F800
01E000
000000
000000
0FF800
3FFE00
3FFF00
3FFF80
100FC0
0007C0
0003C0
0003C0
0003C0
07FFC0
1FFFC0
3FFFC0
7C03C0
F803C0
F003C0
F003C0
F003C0
F803C0
FC03C0
7FFFC0
7FFFC0
1FFFC0
07FF00
ENDCHAR
STARTCHAR 00E6
ENCODING 230
SWIDTH 514 0
DWIDTH 25 0
BBX 21 23 2 0
BITMAP
3F07C0
7F8FE0
7FCFF0
7FFFF0
41FCF8
00F878
00F878
007038
007038
1FFFF8
3FFFF8
7FFFF8
F8F000
F07000
E07800
E07800
E07800
F03C00
F8FE10
FFFFF0
7FFFF8
3FEFF8
1F83E0
ENDCHAR
STARTCHAR 00E7
ENCODING 231
SWIDTH 514 0
DWIDTH 25 0
BBX 20 31 2 -8
BITMAP
007FC0
03FFF0
0FFFE0
1FFFE0
3FC060
3E0000
7C0000
7C0000
780000
780000
F80000
F80000
F80000
F80000
780000
7C0000
7C0000
3E0000
3FC030
1FFFF0
0FFFF0
03FFF0
007FC0
003800
003800
007800
001C00
001E00
01FE00
01FC00
01F800
ENDCHAR
STARTCHAR 00E8
ENCODING 232
SWIDTH 514 0
DWIDTH 25 0
BBX 20 34 2 0
BITMAP
008000
01C000
03E000
01E000
00F000
007800
003C00
001C00
000800
000000
000000
01FC00
07FF00
0FFFC0
1FFFC0
3F07E0
7C01F0
7800F0
F800F0
F000F0
FFFFF0
FFFFF0
FFFFF0
F00000
F00000
F80000
F80000
7C0000
7E0000
3F8040
1FFFC0
0FFFE0
07FFE0
00FF00
ENDCHAR
STARTCHAR 00E9
ENCODING 233
SWIDTH 514 0
DWIDTH 25 0
BBX 20 34 2 0
BITMAP
000800
000C00
001E00
003E00
007C00
00F800
00F000
00E000
004000
000000
000000
01FC00
07FF00
0FFFC0
1FFFC0
3F07E0
7C01F0
7800F0
F800F0
F000F0
FFFFF0
FFFFF0
FFFFF0
F00000
F00000
F80000
F80000
7C0000
7E0000
3F8040
1FFFC0
0FFFE0
07FFE0
00FF00
ENDCHAR
STARTCHAR 00EA
ENCODING 234
SWIDTH 514 0
DWIDTH 25 0
BBX 20 33 2 0
BITMAP
002000
007000
00F800
01FC00
01FE00
03CF00
070700
020100
000000
000000
01FC00
07FF00
0FFFC0
1FFFC0
3F07E0
7C01F0
7800F0
F800F0
F000F0
FFFFF0
FFFFF0
FFFFF0
F00000
F00000
F80000
F80000
7C0000
7E0000
3F8040
1FFFC0
0FFFE0
07FFE0
00FF00
ENDCHAR
STARTCHAR 00EB
ENCODING 235
SWIDTH 514 0
DWIDTH 25 0
BBX 20 32 2 0
BITMAP
070780
0F8780
0F8FC0
0F8780
070780
000000
000000
000000
000000
01FC00
07FF00
0FFFC0
1FFFC0
3F07E0
7C01F0
7800F0
F800F0
F000F0
FFFFF0
FFFFF0
FFFFF0
F00000
F00000
F80000
F80000
7C0000
7E0000
3F8040
1FFFC0
0FFFE0
07FFE0
00FF00
ENDCHAR
STARTCHAR 00EC
ENCODING 236
SWIDTH 514 0
DWIDTH 25 0
BBX 19 34 3 0
BITMAP
040000
0E0000
1F0000
0F8000
078000
03C000
01E000
00E000
004000
000000
000000
FFC000
FFC000
FFC000
03C000
03C000
03C000
03C000
03C000
03C000
03C000
03C000
03C000
03C000
03C000
03C000
03C000
03E000
01E000
01F060
01FFE0
00FFE0
007FE0
003F80
ENDCHAR
STARTCHAR 00ED
ENCODING 237
SWIDTH 514 0
DWIDTH 25 0
BBX 19 34 3 0
BITMAP
004000
00E000
00F000
01E000
03C000
078000
078000
0F0000
020000
000000
000000
FFC000
FFC000
FFC000
03C000
03C000
03C000
03C000
03C000
03C000
03C000
03C000
03C000
03C000
03C000
03C000
03C000
03E000
01E000
01F060
01FFE0
00FFE0
007FE0
003F80
ENDCHAR
STARTCHAR 00EE
ENCODING 238
SWIDTH 514 0
DWIDTH 25 0
BBX 19 33 3 0
BITMAP
010000
038000
07C000
0FE000
1EF000
3C7800
383800
101000
000000
000000
FFC000
FFC000
FFC000
03C000
03C000
03C000
03C000
03C000
03C000
03C000
03C000
03C000
03C000
03C000
03C000
03C000
03E000
01E000
01F060
01FFE0
00FFE0
007FE0
003F80
ENDCHAR
STARTCHAR 00EF
ENCODING 239
SWIDTH 514 0
DWIDTH 25 0
BBX 19 32 3 0
BITMAP
383800
7C7C00
7C7C00
7C7C00
383800
000000
000000
000000
000000
FFC000
FFC000
FFC000
03C000
03C000
03C000
03C000
03C000
03C000
03C000
03C000
03C000
03C000
03C000
03C000
03C000
03E000
01E000
01F060
01FFE0
00FFE0
007FE0
003F80
ENDCHAR
STARTCHAR 00F0
ENCODING 240
SWIDTH 514 0
DWIDTH 25 0
BBX 19 34 3 0
BITMAP
008000
01E000
03F060
00FBE0
007FE0
007FC0
03FE00
07FE00
07CF00
020F00
000780
000780
07E380
0FFB80
3FFFC0
3FFFC0
7E1FC0
7807C0
F803C0
F003C0
F003C0
F003C0
F003C0
F003C0
F003C0
F003C0
F00780
F80780
780F80
7E1F00
3FFF00
1FFE00
0FFC00
03F000
ENDCHAR
STARTCHAR 00F1
ENCODING 241
SWIDTH 514 0
DWIDTH 25 0
BBX 18 32 3 0
BITMAP
070200
0FC700
1FFE00
1CFE00
083800
000000
000000
000000
000000
1FF800
FFFE00
FFFF00
FFFF80
F81F80
F807C0
F807C0
F803C0
F803C0
F803C0
F803C0
F803C0
F803C0
F803C0
F803C0
F803C0
F803C0
F803C0
F803C0
F803C0
F803C0
F803C0
F803C0
ENDCHAR
STARTCHAR 00F2
ENCODING 242
SWIDTH 514 0
DWIDTH 25 0
BBX 21 34 2 0
BITMAP
008000
00C000
01E000
01F000
00F800
007800
003C00
001C00
000800
000000
000000
01F800
07FF00
1FFF80
1FFFC0
3F07E0
7C03E0
7801F0
F800F0
F800F0
F000F0
F000F0
F000F8
F000F8
F000F0
F000F0
F800F0
7801F0
7C03E0
3F07E0
1FFFC0
0FFF80
07FF00
01FC00
ENDCHAR
STARTCHAR 00F3
ENCODING 243
SWIDTH 514 0
DWIDTH 25 0
BBX 21 34 2 0
BITMAP
000800
001C00
003E00
003C00
007800
00F000
01E000
01C000
008000
000000
000000
01F800
07FF00
1FFF80
1FFFC0
3F07E0
7C03E0
7801F0
F800F0
F800F0
F000F0
F000F0
F000F8
F000F8
F000F0
F000F0
F800F0
7801F0
7C03E0
3F07E0
1FFFC0
0FFF80
07FF00
01FC00
ENDCHAR
STARTCHAR 00F4
ENCODING 244
SWIDTH 514 0
DWIDTH 25 0
BBX 21 33 2 0
BITMAP
002000
007000
00F800
01FC00
03FE00
078F00
070700
020200
000000
000000
01F800
07FF00
1FFF80
1FFFC0
3F07E0
7C03E0
7801F0
F800F0
F800F0
F000F0
F000F0
F000F8
F000F8
F000F0
F000F0
F800F0
7801F0
7C03E0
3F07E0
1FFFC0
0FFF80
07FF00
01FC00
ENDCHAR
STARTCHAR 00F5
ENCODING 245
SWIDTH 514 0
DWIDTH 25 0
BBX 21 32 2 0
BITMAP
038100
07E380
0FFF00
0E7F00
041C00
000000
000000
000000
000000
01F800
07FF00
1FFF80
1FFFC0
3F07E0
7C03E0
7801F0
F800F0
F800F0
F000F0
F000F0
F000F8
F000F8
F000F0
F000F0
F800F0
7801F0
7C03E0
3F07E0
1FFFC0
0FFF80
07FF00
01FC00
ENDCHAR
STARTCHAR 00F6
ENCODING 246
SWIDTH 514 0
DWIDTH 25 0
BBX 21 32 2 0
BITMAP
070700
0F0F80
0F8F80
0F0F80
070700
000000
000000
000000
000000
01F800
07FF00
1FFF80
1FFFC0
3F07E0
7C03E0
7801F0
F800F0
F800F0
F000F0
F000F0
F000F8
F000F8
F000F0
F000F0
F800F0
7801F0
7C03E0
3F07E0
1FFFC0
0FFF80
07FF00
01FC00
ENDCHAR
STARTCHAR 00F7
ENCODING 247
SWIDTH 514 0
DWIDTH 25 0
BBX 20 21 2 2
BITMAP
007000
00F800
01F800
01F800
00F800
007000
000000
000000
000000
FFFFF0
FFFFF0
FFFFF0
000000
000000
000000
007000
00F800
01F800
01F800
00F800
007000
ENDCHAR
STARTCHAR 00F8
ENCODING 248
SWIDTH 514 0
DWIDTH 25 0
BBX 21 25 2 -1
BITMAP
000020
01FC70
07FFF0
1FFFE0
1FFFC0
3F07E0
7C07E0
780FF0
F80EF0
F81EF0
F03CF0
F078F8
F0F0F8
F0E0F8
F1C0F0
F3C0F0
FF80F0
7F01F0
7E03E0
3F07E0
3FFFC0
3FFF80
77FF00
71FC00
200000
ENDCHAR
STARTCHAR 00F9
ENCODING 249
SWIDTH 514 0
DWIDTH 25 0
BBX 18 34 3 0
BITMAP
010000
038000
07C000
03C000
01E000
00F000
007800
003800
001000
000000
000000
F003C0
F003C0
F003C0
F003C0
F003C0
F003C0
F003C0
F003C0
F003C0
F003C0
F003C0
F003C0
F003C0
F003C0
F803C0
F803C0
7803C0
7C03C0
7E03C0
3FFFC0
1FFFC0
0FFFC0
03FE00
ENDCHAR
STARTCHAR 00FA
ENCODING 250
SWIDTH 514 0
DWIDTH 25 0
BBX 18 34 3 0
BITMAP
001000
003800
007C00
007800
00F000
01E000
03C000
038000
010000
000000
000000
F003C0
F003C0
F003C0
F003C0
F003C0
F003C0
F003C0
F003C0
F003C0
F003C0
F003C0
F003C0
F003C0
F003C0
F803C0
F803C0
7803C0
7C03C0
7E03C0
3FFFC0
1FFFC0
0FFFC0
03FE00
ENDCHAR
STARTCHAR 00FB
ENCODING 251
SWIDTH 514 0
DWIDTH 25 0
BBX 18 33 3 0
BITMAP
004000
00E000
01F000
03F800
07FC00
0F1E00
0E0E00
040400
000000
000000
F003C0
F003C0
F003C0
F003C0
F003C0
F003C0
F003C0
F003C0
F003C0
F003C0
F003C0
F003C0
F003C0
F003C0
F803C0
F803C0
7803C0
7C03C0
7E03C0
3FFFC0
1FFFC0
0FFFC0
03FE00
ENDCHAR
STARTCHAR 00FC
ENCODING 252
SWIDTH 514 0
DWIDTH 25 0
BBX 18 32 3 0
BITMAP
0E0E00
1E1F00
1F1F00
1E1F00
0E0E00
000000
000000
000000
000000
F003C0
F003C0
F003C0
F003C0
F003C0
F003C0
F003C0
F003C0
F003C0
F003C0
F003C0
F003C0
F003C0
F003C0
F803C0
F803C0
7803C0
7C03C0
7E03C0
3FFFC0
1FFFC0
0FFFC0
03FE00
ENDCHAR
STARTCHAR 00FD
ENCODING 253
SWIDTH 514 0
DWIDTH 25 0
BBX 20 42 2 -8
BITMAP
000800
001C00
001E00
003C00
007800
00F800
00F000
01E000
004000
000000
000000
F800F0
7800F0
7800F0
7C01F0
3C01E0
3C01E0
3E01E0
1E03E0
1E03C0
1F03C0
0F03C0
0F0780
078780
078780
078700
03CF00
03CF00
01EE00
01FE00
00FE00
00FC00
007C00
007800
007800
007000
00F000
83E000
FFE000
FFC000
FF8000
FE0000
ENDCHAR
STARTCHAR 00FE
ENCODING 254
SWIDTH 514 0
DWIDTH 25 0
BBX 20 42 3 -8
BITMAP
380000
F80000
F80000
F80000
F80000
F80000
F80000
F80000
F80000
F80000
F80000
F9F800
FFFE00
FFFF00
FFFF80
FE0FC0
F807C0
F803E0
F801E0
F801E0
F801E0
F801F0
F801F0
F801F0
F801E0
F801E0
F801E0
F803E0
F807C0
FE0FC0
FFFF80
FFFF00
FFFE00
FBF800
F80000
F80000
F80000
F80000
F80000
F80000
F80000
F80000
ENDCHAR
STARTCHAR 00FF
ENCODING 255
SWIDTH 514 0
DWIDTH 25 0
BBX 20 40 2 -8
BITMAP
070380
0F87C0
0F87C0
0F87C0
070380
000000
000000
000000
000000
F800F0
7800F0
7800F0
7C01F0
3C01E0
3C01E0
3E01E0
1E03E0
1E03C0
1F03C0
0F03C0
0F0780
078780
078780
078700
03CF00
03CF00
01EE00
01FE00
00FE00
00FC00
007C00
007800
007800
007000
00F000
83E000
FFE000
FFC000
FF8000
FE0000
ENDCHAR
STARTCHAR 0152
ENCODING 140
SWIDTH 514 0
DWIDTH 25 0
BBX 23 30 1 0
BITMAP
01FFFC
07FFFC
0FFFFC
1FFF00
3F0F00
3E0F00
3C0F00
7C0F00
780F00
780F00
780F00
F00F00
F00F00
F00FF8
F00FF8
F00FF8
F00F00
F00F00
F00F00
780F00
780F00
780F00
780F00
7C0F00
3C0F00
3F0F00
1FFF00
0FFFFE
07FFFE
01FFFE
ENDCHAR
STARTCHAR 0153
ENCODING 156
SWIDTH 514 0
DWIDTH 25 0
BBX 21 23 2 0
BITMAP
0F03C0
3F87E0
3FCFF0
7FDFF0
79FC78
F0FC78
F0F878
F0F838
E07838
E07FF8
E07FF8
E07FF8
E07800
E07800
E07800
F07800
F0FC00
F0FC00
79FE10
7FDFF0
3FCFF8
3F87F8
0F03E0
ENDCHAR
STARTCHAR 0160
ENCODING 138
SWIDTH 514 0
DWIDTH 25 0
BBX 19 41 3 0
BITMAP
040200
070700
079E00
03FC00
01FC00
00F800
007000
002000
000000
000000
000000
03FC00
0FFF80
1FFFC0
3FFF80
7E0780
780080
780000
F00000
F80000
780000
7C0000
7E0000
3FC000
1FF000
0FFC00
03FF00
00FF80
001FC0
0007C0
0003E0
0003E0
0001E0
0001E0
0003E0
4003C0
F00FC0
FFFFC0
FFFF80
7FFE00
0FF800
ENDCHAR
STARTCHAR 0161
ENCODING 154
SWIDTH 514 0
DWIDTH 25 0
BBX 18 34 3 0
BITMAP
040400
0E0E00
0F1E00
07FC00
03F800
01F000
00E000
004000
000000
000000
000000
03FE00
1FFF80
3FFF80
7FFF80
7C0180
780000
780000
780000
7E0000
3FC000
1FF800
0FFE00
03FF00
007F80
000FC0
0003C0
0003C0
4003C0
7807C0
7FFFC0
FFFF80
7FFF00
0FF800
ENDCHAR
STARTCHAR 0178
ENCODING 159
SWIDTH 514 0
DWIDTH 25 0
BBX 23 39 1 0
BITMAP
038380
07C7C0
07C7C0
07C7C0
038380
000000
000000
000000
000000
F0003E
F8003C
78007C
7C0078
7C0078
3C00F8
3E00F0
1E01F0
1F01E0
0F83E0
0F83C0
07C780
03C780
03EF00
01FF00
01FE00
00FE00
00FC00
007800
007800
007800
007800
007800
007800
007800
007800
007800
007800
007800
007800
ENDCHAR
STARTCHAR 017D
ENCODING 142
SWIDTH 514 0
DWIDTH 25 0
BBX 19 41 3 0
BITMAP
040400
0E0E00
0F1E00
07FC00
03F800
01F000
00E000
004000
000000
000000
000000
FFFFE0
FFFFE0
FFFFE0
0003C0
0007C0
000780
000F00
001F00
001E00
003C00
007C00
007800
00F800
01F000
01E000
03E000
03C000
07C000
078000
0F0000
1F0000
1E0000
3E0000
3C0000
7C0000
780000
F80000
FFFFE0
FFFFE0
FFFFE0
ENDCHAR
STARTCHAR 017E
ENCODING 158
SWIDTH 514 0
DWIDTH 25 0
BBX 17 34 4 0
BITMAP
080800
1C1C00
1E3C00
0FF800
07F000
03E000
01C000
008000
000000
000000
000000
FFFF80
FFFF80
FFFF80
001F00
003E00
007C00
007C00
00F800
01F000
01E000
03E000
07C000
078000
0F8000
1F0000
1E0000
3E0000
7C0000
780000
F80000
FFFF80
FFFF80
FFFF80
ENDCHAR
STARTCHAR 0192
ENCODING 131
SWIDTH 514 0
DWIDTH 25 0
BBX 24 42 0 -8
BITMAP
0007F0
001FFF
003FFE
007FFE
007C0E
00F800
00F000
00F000
00F000
00F000
00F000
1FFFF8
1FFFF8
1FFFF8
00F000
00F000
00F000
00F000
00F000
00F000
00F000
00F000
00F000
00F000
00F000
00F000
00F000
00F000
00F000
00F000
00F000
00F000
00F000
00F000
00F000
00F000
01F000
03E000
7FE000
7FC000
7F8000
FE0000
ENDCHAR
STARTCHAR 02C6
ENCODING 136
SWIDTH 514 0
DWIDTH 25 0
BBX 11 8 7 25
BITMAP
0400
0E00
1F00
3F80
7FC0
F1E0
E0E0
4040
ENDCHAR
STARTCHAR 02DC
ENCODING 152
SWIDTH 514 0
DWIDTH 25 0
BBX 13 5 6 27
BITMAP
3810
7E38
FFF0
E7F0
41C0
ENDCHAR
STARTCHAR 2013
ENCODING 150
SWIDTH 514 0
DWIDTH 25 0
BBX 18 3 3 12
BITMAP
FFFFC0
FFFFC0
FFFFC0
ENDCHAR
STARTCHAR 2014
ENCODING 151
SWIDTH 514 0
DWIDTH 25 0
BBX 25 3 0 12
BITMAP
FFFFFF80
FFFFFF80
FFFFFF80
ENDCHAR
STARTCHAR 2018
ENCODING 145
SWIDTH 514 0
DWIDTH 25 0
BBX 10 14 7 21
BITMAP
01C0
07C0
0FC0
1F00
3C00
7800
7800
7C00
FE00
FF00
FF00
7E00
7E00
3C00
ENDCHAR
STARTCHAR 2019
ENCODING 146
SWIDTH 514 0
DWIDTH 25 0
BBX 10 14 7 21
BITMAP
0700
1F80
1FC0
1FC0
1FC0
1FC0
0FC0
03C0
0780
0F80
3F00
FE00
7800
6000
ENDCHAR
STARTCHAR 201A
ENCODING 130
SWIDTH 514 0
DWIDTH 25 0
BBX 10 14 7 -7
BITMAP
0700
1F80
1FC0
1FC0
1FC0
1FC0
0FC0
03C0
0780
0F80
3F00
FE00
7800
6000
ENDCHAR
STARTCHAR 201C
ENCODING 147
SWIDTH 514 0
DWIDTH 25 0
BBX 20 13 2 21
BITMAP
038070
0F81F0
1F83F0
3E07C0
780F00
700F00
F80F80
FC1FC0
FE1FC0
FE1FC0
FE0FC0
7C0FC0
380780
ENDCHAR
STARTCHAR 201D
ENCODING 148
SWIDTH 514 0
DWIDTH 25 0
BBX 20 13 2 21
BITMAP
0E01E0
1F03F0
3F83F0
3F83F0
3F83F0
1F83F0
0F81F0
0780F0
0F01E0
3E07E0
FE1FC0
F80F80
600C00
ENDCHAR
STARTCHAR 201E
ENCODING 132
SWIDTH 514 0
DWIDTH 25 0
BBX 20 13 2 -6
BITMAP
0E01E0
1F03F0
3F83F0
3F83F0
3F83F0
1F83F0
0F81F0
0780F0
0F00E0
3E03E0
FE0FC0
F80F80
600E00
ENDCHAR
STARTCHAR 2020
ENCODING 134
SWIDTH 514 0
DWIDTH 25 0
BBX 17 36 4 -6
BITMAP
03C000
03C000
03C000
03C000
03C000
03C000
03C000
03C000
03C000
03C000
FFFF80
FFFF80
FFFF80
03C000
03C000
03C000
03C000
03C000
03C000
03C000
03C000
03C000
03C000
03C000
03C000
03C000
01C000
01C000
01C000
01C000
01C000
01C000
01C000
01C000
018000
018000
ENDCHAR
STARTCHAR 2021
ENCODING 135
SWIDTH 514 0
DWIDTH 25 0
BBX 17 36 4 -6
BITMAP
03C000
03C000
03C000
03C000
03C000
03C000
03C000
03C000
03C000
03C000
FFFF80
FFFF80
FFFF80
03C000
03C000
03C000
03C000
03C000
03C000
03C000
03C000
FFFF80
FFFF80
FFFF80
03C000
03C000
03C000
01C000
01C000
01C000
01C000
01C000
01C000
01C000
018000
018000
ENDCHAR
STARTCHAR 2022
ENCODING 149
SWIDTH 514 0
DWIDTH 25 0
BBX 13 14 6 8
BITMAP
0F80
3FE0
7FE0
FFF0
FFF0
FFF8
FFF8
FFF8
FFF8
FFF8
FFF0
7FE0
3FC0
0F80
ENDCHAR
STARTCHAR 2026
ENCODING 133
SWIDTH 514 0
DWIDTH 25 0
BBX 21 7 2 0
BITMAP
707070
F0F0F8
F8F8F8
F8F8F8
F8F8F8
F0F0F8
607070
ENDCHAR
STARTCHAR 2030
ENCODING 137
SWIDTH 514 0
DWIDTH 25 0
BBX 23 30 1 0
BITMAP
3C0000
7E0000
FE0000
EE0000
E70004
C7001E
C7003C
C700F8
E703E0
EE07C0
FE1F00
7E3C00
3CF800
01E000
07C000
1F0000
3C0000
F9E078
E3F0FC
C3F1FC
0339CC
0739CE
0739CE
07398E
07398E
0739CE
0339CC
03F1FC
03F0FC
01E078
ENDCHAR
STARTCHAR 2039
ENCODING 139
SWIDTH 514 0
DWIDTH 25 0
BBX 10 19 7 3
BITMAP
0300
03C0
0780
0F80
0F00
1E00
3E00
7C00
7800
F800
7800
7C00
3E00
1E00
0F00
0F80
0780
03C0
0300
ENDCHAR
STARTCHAR 203A
ENCODING 155
SWIDTH 514 0
DWIDTH 25 0
BBX 9 19 8 3
BITMAP
2000
F000
F000
7800
3C00
3E00
1E00
1F00
0F80
0780
0F80
1F00
1E00
3E00
3C00
7800
F000
F000
2000
ENDCHAR
STARTCHAR 20AC
ENCODING 128
SWIDTH 514 0
DWIDTH 25 0
BBX 21 30 2 0
BITMAP
001FC0
00FFF0
01FFF0
03FFF0
07E020
07C000
0F8000
0F0000
1F0000
1F0000
FFFF80
FFFF80
FFFF80
1E0000
1E0000
1E0000
1E0000
FFFF00
FFFE00
FFFE00
1E0000
1F0000
0F0000
0F8000
0FC000
07E010
03FFF0
01FFF8
00FFF8
003FC0
ENDCHAR
STARTCHAR 2122
ENCODING 153
SWIDTH 514 0
DWIDTH 25 0
BBX 22 12 1 18
BITMAP
FF9C38
FF9C38
1C1E78
1C1E7C
1C1F7C
1C3BFC
1C3BDC
1C3BDC
1C399C
1C381C
1C381C
1C381C
ENDCHAR
ENDFONT
